{
.appVersion = "3342";
.formatVersion = 3;
customParameters = (
{
name = isFixedPitch;
value = 1;
},
{
name = "Write DisplayStrings";
value = 0;
},
{
name = "Use Typo Metrics";
value = 1;
}
);
date = "2024-02-19 15:54:26 +0000";
familyName = "GWCV Crawler";
fontMaster = (
{
customParameters = (
{
name = typoAscender;
value = 960;
},
{
name = typoDescender;
value = -145;
},
{
name = typoLineGap;
value = 0;
},
{
name = winAscent;
value = 1250;
},
{
name = winDescent;
value = 410;
},
{
name = hheaAscender;
value = 960;
},
{
name = hheaDescender;
value = -145;
},
{
name = hheaLineGap;
value = 0;
}
);
id = "6E00C01D-8562-4DD7-AEA9-E2E0AAE53370";
metricValues = (
{
over = 16;
pos = 960;
},
{
over = 16;
pos = 960;
},
{
over = 16;
pos = 500;
},
{
over = -16;
},
{
over = -16;
pos = -200;
},
{
}
);
name = Regular;
userData = {
GSCornerRadius = 15;
};
}
);
glyphs = (
{
glyphname = C;
lastChange = "2025-02-27 04:52:58 +0000";
layers = (
{
background = {
shapes = (
{
closed = 1;
nodes = (
(285,780,o),
(298,793,o),
(298,811,cs),
(298,827,o),
(285,840,o),
(269,840,cs),
(251,840,o),
(238,827,o),
(238,811,cs),
(238,793,o),
(251,780,o),
(269,780,cs)
);
},
{
closed = 1;
nodes = (
(455,780,o),
(468,793,o),
(468,811,cs),
(468,827,o),
(455,840,o),
(439,840,cs),
(421,840,o),
(408,827,o),
(408,811,cs),
(408,793,o),
(421,780,o),
(439,780,cs)
);
},
{
closed = 1;
nodes = (
(269,780,l),
(439,780,l),
(439,840,l),
(269,840,l)
);
},
{
closed = 1;
nodes = (
(185,840,o),
(198,853,o),
(198,871,cs),
(198,887,o),
(185,900,o),
(169,900,cs),
(151,900,o),
(138,887,o),
(138,871,cs),
(138,853,o),
(151,840,o),
(169,840,cs)
);
},
{
closed = 1;
nodes = (
(355,840,o),
(368,853,o),
(368,871,cs),
(368,887,o),
(355,900,o),
(339,900,cs),
(321,900,o),
(308,887,o),
(308,871,cs),
(308,853,o),
(321,840,o),
(339,840,cs)
);
},
{
closed = 1;
nodes = (
(169,840,l),
(339,840,l),
(339,900,l),
(169,900,l)
);
},
{
closed = 1;
nodes = (
(285,900,o),
(298,913,o),
(298,931,cs),
(298,947,o),
(285,960,o),
(269,960,cs),
(251,960,o),
(238,947,o),
(238,931,cs),
(238,913,o),
(251,900,o),
(269,900,cs)
);
},
{
closed = 1;
nodes = (
(455,900,o),
(468,913,o),
(468,931,cs),
(468,947,o),
(455,960,o),
(439,960,cs),
(421,960,o),
(408,947,o),
(408,931,cs),
(408,913,o),
(421,900,o),
(439,900,cs)
);
},
{
closed = 1;
nodes = (
(269,900,l),
(439,900,l),
(439,960,l),
(269,960,l)
);
},
{
closed = 1;
nodes = (
(185,960,o),
(198,973,o),
(198,991,cs),
(198,1007,o),
(185,1020,o),
(169,1020,cs),
(151,1020,o),
(138,1007,o),
(138,991,cs),
(138,973,o),
(151,960,o),
(169,960,cs)
);
},
{
closed = 1;
nodes = (
(355,960,o),
(368,973,o),
(368,991,cs),
(368,1007,o),
(355,1020,o),
(339,1020,cs),
(321,1020,o),
(308,1007,o),
(308,991,cs),
(308,973,o),
(321,960,o),
(339,960,cs)
);
},
{
closed = 1;
nodes = (
(169,960,l),
(339,960,l),
(339,1020,l),
(169,1020,l)
);
},
{
closed = 1;
nodes = (
(285,1020,o),
(298,1033,o),
(298,1051,cs),
(298,1067,o),
(285,1080,o),
(269,1080,cs),
(251,1080,o),
(238,1067,o),
(238,1051,cs),
(238,1033,o),
(251,1020,o),
(269,1020,cs)
);
},
{
closed = 1;
nodes = (
(455,1020,o),
(468,1033,o),
(468,1051,cs),
(468,1067,o),
(455,1080,o),
(439,1080,cs),
(421,1080,o),
(408,1067,o),
(408,1051,cs),
(408,1033,o),
(421,1020,o),
(439,1020,cs)
);
},
{
closed = 1;
nodes = (
(269,1020,l),
(439,1020,l),
(439,1080,l),
(269,1080,l)
);
}
);
};
backgroundImage = {
imagePath = "/var/folders/pw/s1l1bh2d0c559xgnrxlndqpm0000gq/T/TemporaryItems/NSIRD_screencaptureui_YchlW6/Screenshot 2024-04-17 at 2.18.26 PM.png";
pos = (-206,-1169);
scale = (6.4989,6.4989);
};
layerId = "6E00C01D-8562-4DD7-AEA9-E2E0AAE53370";
shapes = (
{
alignment = -1;
pos = (78,120);
ref = bar.2;
},
{
alignment = -1;
pos = (48,180);
ref = bar.2;
},
{
alignment = -1;
pos = (48,240);
ref = bar.2;
},
{
alignment = -1;
pos = (48,300);
ref = bar.2;
},
{
alignment = -1;
pos = (48,600);
ref = bar.2;
},
{
alignment = -1;
pos = (48,660);
ref = bar.2;
},
{
alignment = -1;
pos = (48,720);
ref = bar.2;
},
{
alignment = -1;
pos = (78,780);
ref = bar.2;
},
{
alignment = -1;
pos = (366,60);
ref = bar.2;
},
{
alignment = -1;
pos = (390,120);
ref = bar.2;
},
{
alignment = -1;
pos = (418,180);
ref = bar.2;
},
{
alignment = -1;
pos = (418,720);
ref = bar.2;
},
{
alignment = -1;
pos = (398,780);
ref = bar.2;
},
{
alignment = -1;
pos = (366,840);
ref = bar.2;
},
{
alignment = -1;
pos = (48,360);
ref = bar.2;
},
{
alignment = -1;
pos = (171,0);
ref = bar.7;
},
{
alignment = -1;
pos = (115,60);
ref = bar.7;
},
{
alignment = -1;
pos = (165,840);
ref = bar.7;
},
{
alignment = -1;
pos = (168,900);
ref = bar.7;
},
{
alignment = -1;
pos = (115,840);
ref = bar.7;
},
{
alignment = -1;
pos = (48,420);
ref = bar.2;
},
{
alignment = -1;
pos = (48,480);
ref = bar.2;
},
{
alignment = -1;
pos = (48,540);
ref = bar.2;
}
);
width = 670;
}
);
unicode = 67;
},
{
glyphname = J;
lastChange = "2025-02-27 20:25:37 +0000";
layers = (
{
backgroundImage = {
imagePath = "../../../../Desktop/Screenshot 2024-04-17 at 12.20.12 PM.png";
locked = 1;
pos = (57,-13);
scale = (2.2835,2.2835);
};
layerId = "6E00C01D-8562-4DD7-AEA9-E2E0AAE53370";
shapes = (
{
alignment = -1;
pos = (73,120);
ref = bar.2;
},
{
alignment = -1;
pos = (43,180);
ref = bar.2;
},
{
alignment = -1;
pos = (43,240);
ref = bar.2;
},
{
closed = 1;
nodes = (
(162,300,o),
(175,313,o),
(175,331,cs),
(175,347,o),
(162,360,o),
(146,360,cs),
(128,360,o),
(115,347,o),
(115,331,cs),
(115,313,o),
(128,300,o),
(146,300,cs)
);
},
{
closed = 1;
nodes = (
(232,300,o),
(245,313,o),
(245,331,cs),
(245,347,o),
(232,360,o),
(216,360,cs),
(198,360,o),
(185,347,o),
(185,331,cs),
(185,313,o),
(198,300,o),
(216,300,cs)
);
},
{
closed = 1;
nodes = (
(146,300,l),
(216,300,l),
(216,360,l),
(146,360,l)
);
},
{
alignment = -1;
pos = (341,60);
ref = bar.2;
},
{
alignment = -1;
pos = (365,120);
ref = bar.2;
},
{
alignment = -1;
pos = (393,180);
ref = bar.2;
},
{
alignment = -1;
pos = (393,240);
ref = bar.2;
},
{
alignment = -1;
pos = (393,300);
ref = bar.2;
},
{
alignment = -1;
pos = (393,360);
ref = bar.2;
},
{
alignment = -1;
pos = (393,420);
ref = bar.2;
},
{
alignment = -1;
pos = (393,480);
ref = bar.2;
},
{
alignment = -1;
pos = (393,540);
ref = bar.2;
},
{
alignment = -1;
pos = (156,0);
ref = bar.7;
},
{
alignment = -1;
pos = (110,60);
ref = bar.7;
},
{
alignment = -1;
pos = (393,600);
ref = bar.2;
},
{
alignment = -1;
pos = (393,660);
ref = bar.2;
},
{
alignment = -1;
pos = (393,720);
ref = bar.2;
},
{
alignment = -1;
pos = (393,780);
ref = bar.2;
},
{
alignment = -1;
pos = (393,840);
ref = bar.2;
},
{
alignment = -1;
pos = (393,900);
ref = bar.2;
}
);
width = 670;
}
);
unicode = 74;
},
{
glyphname = K;
lastChange = "2025-02-27 04:52:58 +0000";
layers = (
{
background = {
shapes = (
{
closed = 1;
nodes = (
(89,0,o),
(102,13,o),
(102,31,cs),
(102,47,o),
(89,60,o),
(73,60,cs),
(55,60,o),
(42,47,o),
(42,31,cs),
(42,13,o),
(55,0,o),
(73,0,cs)
);
},
{
closed = 1;
nodes = (
(149,0,o),
(162,13,o),
(162,31,cs),
(162,47,o),
(149,60,o),
(133,60,cs),
(115,60,o),
(102,47,o),
(102,31,cs),
(102,13,o),
(115,0,o),
(133,0,cs)
);
},
{
closed = 1;
nodes = (
(73,0,l),
(133,0,l),
(133,60,l),
(73,60,l)
);
},
{
closed = 1;
nodes = (
(89,60,o),
(102,73,o),
(102,91,cs),
(102,107,o),
(89,120,o),
(73,120,cs),
(55,120,o),
(42,107,o),
(42,91,cs),
(42,73,o),
(55,60,o),
(73,60,cs)
);
},
{
closed = 1;
nodes = (
(149,60,o),
(162,73,o),
(162,91,cs),
(162,107,o),
(149,120,o),
(133,120,cs),
(115,120,o),
(102,107,o),
(102,91,cs),
(102,73,o),
(115,60,o),
(133,60,cs)
);
},
{
closed = 1;
nodes = (
(73,60,l),
(133,60,l),
(133,120,l),
(73,120,l)
);
},
{
closed = 1;
nodes = (
(89,120,o),
(102,133,o),
(102,151,cs),
(102,167,o),
(89,180,o),
(73,180,cs),
(55,180,o),
(42,167,o),
(42,151,cs),
(42,133,o),
(55,120,o),
(73,120,cs)
);
},
{
closed = 1;
nodes = (
(149,120,o),
(162,133,o),
(162,151,cs),
(162,167,o),
(149,180,o),
(133,180,cs),
(115,180,o),
(102,167,o),
(102,151,cs),
(102,133,o),
(115,120,o),
(133,120,cs)
);
},
{
closed = 1;
nodes = (
(73,120,l),
(133,120,l),
(133,180,l),
(73,180,l)
);
},
{
closed = 1;
nodes = (
(89,180,o),
(102,193,o),
(102,211,cs),
(102,227,o),
(89,240,o),
(73,240,cs),
(55,240,o),
(42,227,o),
(42,211,cs),
(42,193,o),
(55,180,o),
(73,180,cs)
);
},
{
closed = 1;
nodes = (
(149,180,o),
(162,193,o),
(162,211,cs),
(162,227,o),
(149,240,o),
(133,240,cs),
(115,240,o),
(102,227,o),
(102,211,cs),
(102,193,o),
(115,180,o),
(133,180,cs)
);
},
{
closed = 1;
nodes = (
(73,180,l),
(133,180,l),
(133,240,l),
(73,240,l)
);
},
{
closed = 1;
nodes = (
(89,240,o),
(102,253,o),
(102,271,cs),
(102,287,o),
(89,300,o),
(73,300,cs),
(55,300,o),
(42,287,o),
(42,271,cs),
(42,253,o),
(55,240,o),
(73,240,cs)
);
},
{
closed = 1;
nodes = (
(149,240,o),
(162,253,o),
(162,271,cs),
(162,287,o),
(149,300,o),
(133,300,cs),
(115,300,o),
(102,287,o),
(102,271,cs),
(102,253,o),
(115,240,o),
(133,240,cs)
);
},
{
closed = 1;
nodes = (
(73,240,l),
(133,240,l),
(133,300,l),
(73,300,l)
);
},
{
closed = 1;
nodes = (
(89,300,o),
(102,313,o),
(102,331,cs),
(102,347,o),
(89,360,o),
(73,360,cs),
(55,360,o),
(42,347,o),
(42,331,cs),
(42,313,o),
(55,300,o),
(73,300,cs)
);
},
{
closed = 1;
nodes = (
(149,300,o),
(162,313,o),
(162,331,cs),
(162,347,o),
(149,360,o),
(133,360,cs),
(115,360,o),
(102,347,o),
(102,331,cs),
(102,313,o),
(115,300,o),
(133,300,cs)
);
},
{
closed = 1;
nodes = (
(73,300,l),
(133,300,l),
(133,360,l),
(73,360,l)
);
},
{
closed = 1;
nodes = (
(89,360,o),
(102,373,o),
(102,391,cs),
(102,407,o),
(89,420,o),
(73,420,cs),
(55,420,o),
(42,407,o),
(42,391,cs),
(42,373,o),
(55,360,o),
(73,360,cs)
);
},
{
closed = 1;
nodes = (
(249,360,o),
(262,373,o),
(262,391,cs),
(262,407,o),
(249,420,o),
(233,420,cs),
(215,420,o),
(202,407,o),
(202,391,cs),
(202,373,o),
(215,360,o),
(233,360,cs)
);
},
{
closed = 1;
nodes = (
(73,360,l),
(233,360,l),
(233,420,l),
(73,420,l)
);
},
{
closed = 1;
nodes = (
(89,420,o),
(102,433,o),
(102,451,cs),
(102,467,o),
(89,480,o),
(73,480,cs),
(55,480,o),
(42,467,o),
(42,451,cs),
(42,433,o),
(55,420,o),
(73,420,cs)
);
},
{
closed = 1;
nodes = (
(149,420,o),
(162,433,o),
(162,451,cs),
(162,467,o),
(149,480,o),
(133,480,cs),
(115,480,o),
(102,467,o),
(102,451,cs),
(102,433,o),
(115,420,o),
(133,420,cs)
);
},
{
closed = 1;
nodes = (
(73,420,l),
(133,420,l),
(133,480,l),
(73,480,l)
);
},
{
closed = 1;
nodes = (
(89,480,o),
(102,493,o),
(102,511,cs),
(102,527,o),
(89,540,o),
(73,540,cs),
(55,540,o),
(42,527,o),
(42,511,cs),
(42,493,o),
(55,480,o),
(73,480,cs)
);
},
{
closed = 1;
nodes = (
(149,480,o),
(162,493,o),
(162,511,cs),
(162,527,o),
(149,540,o),
(133,540,cs),
(115,540,o),
(102,527,o),
(102,511,cs),
(102,493,o),
(115,480,o),
(133,480,cs)
);
},
{
closed = 1;
nodes = (
(73,480,l),
(133,480,l),
(133,540,l),
(73,540,l)
);
},
{
closed = 1;
nodes = (
(89,540,o),
(102,553,o),
(102,571,cs),
(102,587,o),
(89,600,o),
(73,600,cs),
(55,600,o),
(42,587,o),
(42,571,cs),
(42,553,o),
(55,540,o),
(73,540,cs)
);
},
{
closed = 1;
nodes = (
(149,540,o),
(162,553,o),
(162,571,cs),
(162,587,o),
(149,600,o),
(133,600,cs),
(115,600,o),
(102,587,o),
(102,571,cs),
(102,553,o),
(115,540,o),
(133,540,cs)
);
},
{
closed = 1;
nodes = (
(73,540,l),
(133,540,l),
(133,600,l),
(73,600,l)
);
},
{
closed = 1;
nodes = (
(89,600,o),
(102,613,o),
(102,631,cs),
(102,647,o),
(89,660,o),
(73,660,cs),
(55,660,o),
(42,647,o),
(42,631,cs),
(42,613,o),
(55,600,o),
(73,600,cs)
);
},
{
closed = 1;
nodes = (
(149,600,o),
(162,613,o),
(162,631,cs),
(162,647,o),
(149,660,o),
(133,660,cs),
(115,660,o),
(102,647,o),
(102,631,cs),
(102,613,o),
(115,600,o),
(133,600,cs)
);
},
{
closed = 1;
nodes = (
(73,600,l),
(133,600,l),
(133,660,l),
(73,660,l)
);
},
{
closed = 1;
nodes = (
(89,660,o),
(102,673,o),
(102,691,cs),
(102,707,o),
(89,720,o),
(73,720,cs),
(55,720,o),
(42,707,o),
(42,691,cs),
(42,673,o),
(55,660,o),
(73,660,cs)
);
},
{
closed = 1;
nodes = (
(149,660,o),
(162,673,o),
(162,691,cs),
(162,707,o),
(149,720,o),
(133,720,cs),
(115,720,o),
(102,707,o),
(102,691,cs),
(102,673,o),
(115,660,o),
(133,660,cs)
);
},
{
closed = 1;
nodes = (
(73,660,l),
(133,660,l),
(133,720,l),
(73,720,l)
);
},
{
closed = 1;
nodes = (
(89,720,o),
(102,733,o),
(102,751,cs),
(102,767,o),
(89,780,o),
(73,780,cs),
(55,780,o),
(42,767,o),
(42,751,cs),
(42,733,o),
(55,720,o),
(73,720,cs)
);
},
{
closed = 1;
nodes = (
(149,720,o),
(162,733,o),
(162,751,cs),
(162,767,o),
(149,780,o),
(133,780,cs),
(115,780,o),
(102,767,o),
(102,751,cs),
(102,733,o),
(115,720,o),
(133,720,cs)
);
},
{
closed = 1;
nodes = (
(73,720,l),
(133,720,l),
(133,780,l),
(73,780,l)
);
},
{
closed = 1;
nodes = (
(514,0,o),
(527,13,o),
(527,31,cs),
(527,47,o),
(514,60,o),
(495,60,cs),
(479,60,o),
(466,47,o),
(466,31,cs),
(466,13,o),
(479,0,o),
(495,0,cs)
);
},
{
closed = 1;
nodes = (
(453,0,o),
(466,13,o),
(466,31,cs),
(466,47,o),
(453,60,o),
(434,60,cs),
(418,60,o),
(405,47,o),
(405,31,cs),
(405,13,o),
(418,0,o),
(434,0,cs)
);
},
{
closed = 1;
nodes = (
(434,60,l),
(434,0,l),
(495,0,l),
(495,60,l)
);
},
{
closed = 1;
nodes = (
(473,60,o),
(485,73,o),
(485,91,cs),
(485,107,o),
(473,120,o),
(457,120,cs),
(442,120,o),
(430,107,o),
(430,91,cs),
(430,73,o),
(442,60,o),
(457,60,cs)
);
},
{
closed = 1;
nodes = (
(418,60,o),
(430,73,o),
(430,91,cs),
(430,107,o),
(418,120,o),
(401,120,cs),
(386,120,o),
(375,107,o),
(375,91,cs),
(375,73,o),
(386,60,o),
(401,60,cs)
);
},
{
closed = 1;
nodes = (
(401,120,l),
(401,60,l),
(457,60,l),
(457,120,l)
);
},
{
closed = 1;
nodes = (
(280,240,o),
(267,227,o),
(267,209,cs),
(267,193,o),
(280,180,o),
(298,180,cs),
(314,180,o),
(327,193,o),
(327,209,cs),
(327,227,o),
(314,240,o),
(298,240,cs)
);
},
{
closed = 1;
nodes = (
(340,240,o),
(327,227,o),
(327,209,cs),
(327,193,o),
(340,180,o),
(358,180,cs),
(374,180,o),
(387,193,o),
(387,209,cs),
(387,227,o),
(374,240,o),
(358,240,cs)
);
},
{
closed = 1;
nodes = (
(358,180,l),
(358,240,l),
(298,240,l),
(298,180,l)
);
},
{
closed = 1;
nodes = (
(238,300,o),
(225,287,o),
(225,269,cs),
(225,253,o),
(238,240,o),
(256,240,cs),
(272,240,o),
(285,253,o),
(285,269,cs),
(285,287,o),
(272,300,o),
(256,300,cs)
);
},
{
closed = 1;
nodes = (
(298,300,o),
(285,287,o),
(285,269,cs),
(285,253,o),
(298,240,o),
(316,240,cs),
(332,240,o),
(345,253,o),
(345,269,cs),
(345,287,o),
(332,300,o),
(316,300,cs)
);
},
{
closed = 1;
nodes = (
(316,240,l),
(316,300,l),
(256,300,l),
(256,240,l)
);
},
{
closed = 1;
nodes = (
(196,420,o),
(209,433,o),
(209,451,cs),
(209,467,o),
(196,480,o),
(180,480,cs),
(162,480,o),
(149,467,o),
(149,451,cs),
(149,433,o),
(162,420,o),
(180,420,cs)
);
},
{
closed = 1;
nodes = (
(256,420,o),
(269,433,o),
(269,451,cs),
(269,467,o),
(256,480,o),
(240,480,cs),
(222,480,o),
(209,467,o),
(209,451,cs),
(209,433,o),
(222,420,o),
(240,420,cs)
);
},
{
closed = 1;
nodes = (
(180,420,l),
(240,420,l),
(240,480,l),
(180,480,l)
);
},
{
closed = 1;
nodes = (
(236,480,o),
(249,493,o),
(249,511,cs),
(249,527,o),
(236,540,o),
(220,540,cs),
(202,540,o),
(189,527,o),
(189,511,cs),
(189,493,o),
(202,480,o),
(220,480,cs)
);
},
{
closed = 1;
nodes = (
(296,480,o),
(309,493,o),
(309,511,cs),
(309,527,o),
(296,540,o),
(280,540,cs),
(262,540,o),
(249,527,o),
(249,511,cs),
(249,493,o),
(262,480,o),
(280,480,cs)
);
},
{
closed = 1;
nodes = (
(220,480,l),
(280,480,l),
(280,540,l),
(220,540,l)
);
},
{
closed = 1;
nodes = (
(278,540,o),
(291,553,o),
(291,571,cs),
(291,587,o),
(278,600,o),
(262,600,cs),
(244,600,o),
(231,587,o),
(231,571,cs),
(231,553,o),
(244,540,o),
(262,540,cs)
);
},
{
closed = 1;
nodes = (
(338,540,o),
(351,553,o),
(351,571,cs),
(351,587,o),
(338,600,o),
(322,600,cs),
(304,600,o),
(291,587,o),
(291,571,cs),
(291,553,o),
(304,540,o),
(322,540,cs)
);
},
{
closed = 1;
nodes = (
(262,540,l),
(322,540,l),
(322,600,l),
(262,600,l)
);
},
{
closed = 1;
nodes = (
(321,600,o),
(334,613,o),
(334,631,cs),
(334,647,o),
(321,660,o),
(305,660,cs),
(287,660,o),
(274,647,o),
(274,631,cs),
(274,613,o),
(287,600,o),
(305,600,cs)
);
},
{
closed = 1;
nodes = (
(381,600,o),
(394,613,o),
(394,631,cs),
(394,647,o),
(381,660,o),
(365,660,cs),
(347,660,o),
(334,647,o),
(334,631,cs),
(334,613,o),
(347,600,o),
(365,600,cs)
);
},
{
closed = 1;
nodes = (
(305,600,l),
(365,600,l),
(365,660,l),
(305,660,l)
);
},
{
closed = 1;
nodes = (
(363,660,o),
(376,673,o),
(376,691,cs),
(376,707,o),
(363,720,o),
(347,720,cs),
(329,720,o),
(316,707,o),
(316,691,cs),
(316,673,o),
(329,660,o),
(347,660,cs)
);
},
{
closed = 1;
nodes = (
(423,660,o),
(436,673,o),
(436,691,cs),
(436,707,o),
(423,720,o),
(407,720,cs),
(389,720,o),
(376,707,o),
(376,691,cs),
(376,673,o),
(389,660,o),
(407,660,cs)
);
},
{
closed = 1;
nodes = (
(347,660,l),
(407,660,l),
(407,720,l),
(347,720,l)
);
},
{
closed = 1;
nodes = (
(407,720,o),
(420,733,o),
(420,751,cs),
(420,767,o),
(407,780,o),
(391,780,cs),
(373,780,o),
(360,767,o),
(360,751,cs),
(360,733,o),
(373,720,o),
(391,720,cs)
);
},
{
closed = 1;
nodes = (
(467,720,o),
(480,733,o),
(480,751,cs),
(480,767,o),
(467,780,o),
(451,780,cs),
(433,780,o),
(420,767,o),
(420,751,cs),
(420,733,o),
(433,720,o),
(451,720,cs)
);
},
{
closed = 1;
nodes = (
(391,720,l),
(451,720,l),
(451,780,l),
(391,780,l)
);
},
{
closed = 1;
nodes = (
(341,120,o),
(354,133,o),
(354,151,cs),
(354,167,o),
(341,180,o),
(325,180,cs),
(307,180,o),
(294,167,o),
(294,151,cs),
(294,133,o),
(307,120,o),
(325,120,cs)
);
},
{
closed = 1;
nodes = (
(401,120,o),
(414,133,o),
(414,151,cs),
(414,167,o),
(401,180,o),
(385,180,cs),
(367,180,o),
(354,167,o),
(354,151,cs),
(354,133,o),
(367,120,o),
(385,120,cs)
);
},
{
closed = 1;
nodes = (
(325,120,l),
(385,120,l),
(385,180,l),
(325,180,l)
);
},
{
closed = 1;
nodes = (
(241,300,o),
(254,313,o),
(254,331,cs),
(254,347,o),
(241,360,o),
(225,360,cs),
(207,360,o),
(194,347,o),
(194,331,cs),
(194,313,o),
(207,300,o),
(225,300,cs)
);
},
{
closed = 1;
nodes = (
(301,300,o),
(314,313,o),
(314,331,cs),
(314,347,o),
(301,360,o),
(285,360,cs),
(267,360,o),
(254,347,o),
(254,331,cs),
(254,313,o),
(267,300,o),
(285,300,cs)
);
},
{
closed = 1;
nodes = (
(225,300,l),
(285,300,l),
(285,360,l),
(225,360,l)
);
},
{
closed = 1;
nodes = (
(149,420,o),
(162,433,o),
(162,451,cs),
(162,467,o),
(149,480,o),
(133,480,cs),
(115,480,o),
(102,467,o),
(102,451,cs),
(102,433,o),
(115,420,o),
(133,420,cs)
);
},
{
closed = 1;
nodes = (
(209,420,o),
(222,433,o),
(222,451,cs),
(222,467,o),
(209,480,o),
(193,480,cs),
(175,480,o),
(162,467,o),
(162,451,cs),
(162,433,o),
(175,420,o),
(193,420,cs)
);
},
{
closed = 1;
nodes = (
(133,420,l),
(193,420,l),
(193,480,l),
(133,480,l)
);
}
);
};
backgroundImage = {
imagePath = "/var/folders/pw/s1l1bh2d0c559xgnrxlndqpm0000gq/T/TemporaryItems/NSIRD_screencaptureui_ZOv5hv/Screenshot 2024-02-19 at 1.01.31 PM.png";
locked = 1;
pos = (-3185,-58);
scale = (8.0187,8.0187);
};
layerId = "6E00C01D-8562-4DD7-AEA9-E2E0AAE53370";
shapes = (
{
alignment = -1;
pos = (48,60);
ref = bar.2;
},
{
alignment = -1;
pos = (48,120);
ref = bar.2;
},
{
alignment = -1;
pos = (48,180);
ref = bar.2;
},
{
alignment = -1;
pos = (48,240);
ref = bar.2;
},
{
alignment = -1;
pos = (48,300);
ref = bar.2;
},
{
alignment = -1;
pos = (48,360);
ref = bar.2;
},
{
alignment = -1;
pos = (48,420);
ref = bar.4;
},
{
alignment = -1;
pos = (48,480);
ref = bar.2;
},
{
alignment = -1;
pos = (48,540);
ref = bar.2;
},
{
alignment = -1;
pos = (48,600);
ref = bar.2;
},
{
alignment = -1;
pos = (48,660);
ref = bar.2;
},
{
alignment = -1;
pos = (48,720);
ref = bar.2;
},
{
alignment = -1;
pos = (48,780);
ref = bar.2;
},
{
alignment = -1;
pos = (444,60);
ref = bar.2;
},
{
alignment = -1;
pos = (405,120);
ref = bar.2;
},
{
alignment = -1;
pos = (323,240);
ref = bar.2;
},
{
alignment = -1;
pos = (281,300);
ref = bar.2;
},
{
alignment = -1;
pos = (205,480);
ref = bar.2;
},
{
alignment = -1;
pos = (245,540);
ref = bar.2;
},
{
alignment = -1;
pos = (287,600);
ref = bar.2;
},
{
alignment = -1;
pos = (330,660);
ref = bar.2;
},
{
alignment = -1;
pos = (372,720);
ref = bar.2;
},
{
alignment = -1;
pos = (416,780);
ref = bar.2;
},
{
alignment = -1;
pos = (367,180);
ref = bar.2;
},
{
alignment = -1;
pos = (250,360);
ref = bar.2;
},
{
alignment = -1;
pos = (108,480);
ref = bar.2;
},
{
alignment = -1;
pos = (205,420);
ref = bar.2;
},
{
alignment = -1;
pos = (125,420);
ref = bar.2;
},
{
alignment = -1;
pos = (48,840);
ref = bar.2;
},
{
alignment = -1;
pos = (48,900);
ref = bar.2;
},
{
alignment = -1;
pos = (443,840);
ref = bar.2;
},
{
alignment = -1;
pos = (486,900);
ref = bar.2;
},
{
alignment = -1;
pos = (48,0);
ref = bar.2;
},
{
alignment = -1;
pos = (484,0);
ref = bar.2;
}
);
width = 670;
}
);
metricWidth = "=H";
unicode = 75;
},
{
glyphname = Q;
lastChange = "2025-02-27 04:52:58 +0000";
layers = (
{
background = {
shapes = (
{
closed = 1;
nodes = (
(378,60,l),
(158,60,l),
(158,0,l),
(378,0,l)
);
},
{
closed = 1;
nodes = (
(198,120,l),
(122,120,l),
(122,60,l),
(198,60,l)
);
},
{
closed = 1;
nodes = (
(174,180,l),
(98,180,l),
(98,120,l),
(174,120,l)
);
},
{
closed = 1;
nodes = (
(150,240,l),
(74,240,l),
(74,180,l),
(150,180,l)
);
},
{
closed = 1;
nodes = (
(138,300,l),
(62,300,l),
(62,240,l),
(138,240,l)
);
},
{
closed = 1;
nodes = (
(138,360,l),
(62,360,l),
(62,300,l),
(138,300,l)
);
},
{
closed = 1;
nodes = (
(138,420,l),
(62,420,l),
(62,360,l),
(138,360,l)
);
},
{
closed = 1;
nodes = (
(138,480,l),
(62,480,l),
(62,420,l),
(138,420,l)
);
},
{
closed = 1;
nodes = (
(138,540,l),
(62,540,l),
(62,480,l),
(138,480,l)
);
},
{
closed = 1;
nodes = (
(138,600,l),
(62,600,l),
(62,540,l),
(138,540,l)
);
},
{
closed = 1;
nodes = (
(174,660,l),
(98,660,l),
(98,600,l),
(174,600,l)
);
},
{
closed = 1;
nodes = (
(198,720,l),
(122,720,l),
(122,660,l),
(198,660,l)
);
},
{
closed = 1;
nodes = (
(414,120,l),
(338,120,l),
(338,60,l),
(414,60,l)
);
},
{
closed = 1;
nodes = (
(438,180,l),
(362,180,l),
(362,120,l),
(438,120,l)
);
},
{
closed = 1;
nodes = (
(456,240,l),
(380,240,l),
(380,180,l),
(456,180,l)
);
},
{
closed = 1;
nodes = (
(456,300,l),
(380,300,l),
(380,240,l),
(456,240,l)
);
},
{
closed = 1;
nodes = (
(456,360,l),
(380,360,l),
(380,300,l),
(456,300,l)
);
},
{
closed = 1;
nodes = (
(456,420,l),
(380,420,l),
(380,360,l),
(456,360,l)
);
},
{
closed = 1;
nodes = (
(456,480,l),
(380,480,l),
(380,420,l),
(456,420,l)
);
},
{
closed = 1;
nodes = (
(456,540,l),
(380,540,l),
(380,480,l),
(456,480,l)
);
},
{
closed = 1;
nodes = (
(456,600,l),
(380,600,l),
(380,540,l),
(456,540,l)
);
},
{
closed = 1;
nodes = (
(456,660,l),
(380,660,l),
(380,600,l),
(456,600,l)
);
},
{
closed = 1;
nodes = (
(414,720,l),
(338,720,l),
(338,660,l),
(414,660,l)
);
},
{
closed = 1;
nodes = (
(378,780,l),
(158,780,l),
(158,720,l),
(378,720,l)
);
},
{
closed = 1;
nodes = (
(300,300,l),
(224,300,l),
(224,240,l),
(300,240,l)
);
},
{
closed = 1;
nodes = (
(329,240,l),
(253,240,l),
(253,180,l),
(329,180,l)
);
},
{
closed = 1;
nodes = (
(362,180,l),
(286,180,l),
(286,120,l),
(362,120,l)
);
},
{
closed = 1;
nodes = (
(454,60,l),
(378,60,l),
(378,0,l),
(454,0,l)
);
},
{
closed = 1;
nodes = (
(396,120,l),
(320,120,l),
(320,60,l),
(396,60,l)
);
},
{
closed = 1;
nodes = (
(269,360,l),
(193,360,l),
(193,300,l),
(269,300,l)
);
}
);
};
layerId = "6E00C01D-8562-4DD7-AEA9-E2E0AAE53370";
shapes = (
{
alignment = -1;
pos = (78,120);
ref = bar.2;
},
{
alignment = -1;
pos = (48,180);
ref = bar.2;
},
{
alignment = -1;
pos = (48,240);
ref = bar.2;
},
{
alignment = -1;
pos = (48,300);
ref = bar.2;
},
{
alignment = -1;
pos = (48,600);
ref = bar.2;
},
{
alignment = -1;
pos = (48,660);
ref = bar.2;
},
{
alignment = -1;
pos = (48,720);
ref = bar.2;
},
{
alignment = -1;
pos = (78,780);
ref = bar.2;
},
{
alignment = -1;
pos = (366,60);
ref = bar.2;
},
{
alignment = -1;
pos = (390,120);
ref = bar.2;
},
{
alignment = -1;
pos = (418,180);
ref = bar.2;
},
{
alignment = -1;
pos = (418,240);
ref = bar.2;
},
{
alignment = -1;
pos = (418,300);
ref = bar.2;
},
{
alignment = -1;
pos = (418,540);
ref = bar.2;
},
{
alignment = -1;
pos = (418,600);
ref = bar.2;
},
{
alignment = -1;
pos = (418,660);
ref = bar.2;
},
{
alignment = -1;
pos = (418,720);
ref = bar.2;
},
{
alignment = -1;
pos = (398,780);
ref = bar.2;
},
{
alignment = -1;
pos = (366,840);
ref = bar.2;
},
{
alignment = -1;
pos = (48,540);
ref = bar.2;
},
{
alignment = -1;
pos = (171,0);
ref = bar.7;
},
{
alignment = -1;
pos = (125,60);
ref = bar.7;
},
{
alignment = -1;
pos = (165,840);
ref = bar.7;
},
{
alignment = -1;
pos = (168,900);
ref = bar.7;
},
{
alignment = -1;
pos = (125,840);
ref = bar.7;
},
{
alignment = -1;
pos = (48,420);
ref = bar.2;
},
{
alignment = -1;
pos = (48,480);
ref = bar.2;
},
{
alignment = -1;
pos = (418,360);
ref = bar.2;
},
{
alignment = -1;
pos = (418,420);
ref = bar.2;
},
{
alignment = -1;
pos = (418,480);
ref = bar.2;
},
{
alignment = -1;
pos = (48,360);
ref = bar.2;
},
{
alignment = -1;
pos = (451,60);
ref = bar.2;
},
{
alignment = -1;
pos = (311,0);
ref = bar.7;
}
);
width = 670;
}
);
unicode = 81;
},
{
glyphname = W;
lastChange = "2025-02-27 20:21:23 +0000";
layers = (
{
background = {
shapes = (
{
closed = 1;
nodes = (
(178,60,l),
(102,60,l),
(102,0,l),
(178,0,l)
);
},
{
closed = 1;
nodes = (
(202,120,l),
(82,120,l),
(82,60,l),
(202,60,l)
);
},
{
closed = 1;
nodes = (
(138,180,l),
(62,180,l),
(62,120,l),
(138,120,l)
);
},
{
closed = 1;
nodes = (
(138,240,l),
(62,240,l),
(62,180,l),
(138,180,l)
);
},
{
closed = 1;
nodes = (
(138,300,l),
(62,300,l),
(62,240,l),
(138,240,l)
);
},
{
closed = 1;
nodes = (
(138,360,l),
(62,360,l),
(62,300,l),
(138,300,l)
);
},
{
closed = 1;
nodes = (
(138,480,l),
(62,480,l),
(62,420,l),
(138,420,l)
);
},
{
closed = 1;
nodes = (
(138,540,l),
(62,540,l),
(62,480,l),
(138,480,l)
);
},
{
closed = 1;
nodes = (
(138,600,l),
(62,600,l),
(62,540,l),
(138,540,l)
);
},
{
closed = 1;
nodes = (
(138,660,l),
(62,660,l),
(62,600,l),
(138,600,l)
);
},
{
closed = 1;
nodes = (
(138,720,l),
(62,720,l),
(62,660,l),
(138,660,l)
);
},
{
closed = 1;
nodes = (
(138,780,l),
(62,780,l),
(62,720,l),
(138,720,l)
);
},
{
closed = 1;
nodes = (
(416,60,l),
(340,60,l),
(340,0,l),
(416,0,l)
);
},
{
closed = 1;
nodes = (
(456,120,l),
(317,120,l),
(317,60,l),
(456,60,l)
);
},
{
closed = 1;
nodes = (
(456,180,l),
(129,180,l),
(129,120,l),
(456,120,l)
);
},
{
closed = 1;
nodes = (
(456,240,l),
(380,240,l),
(380,180,l),
(456,180,l)
);
},
{
closed = 1;
nodes = (
(456,300,l),
(380,300,l),
(380,240,l),
(456,240,l)
);
},
{
closed = 1;
nodes = (
(456,360,l),
(380,360,l),
(380,300,l),
(456,300,l)
);
},
{
closed = 1;
nodes = (
(456,480,l),
(380,480,l),
(380,420,l),
(456,420,l)
);
},
{
closed = 1;
nodes = (
(456,540,l),
(380,540,l),
(380,480,l),
(456,480,l)
);
},
{
closed = 1;
nodes = (
(456,600,l),
(380,600,l),
(380,540,l),
(456,540,l)
);
},
{
closed = 1;
nodes = (
(456,660,l),
(380,660,l),
(380,600,l),
(456,600,l)
);
},
{
closed = 1;
nodes = (
(456,720,l),
(380,720,l),
(380,660,l),
(456,660,l)
);
},
{
closed = 1;
nodes = (
(456,780,l),
(380,780,l),
(380,720,l),
(456,720,l)
);
},
{
closed = 1;
nodes = (
(138,420,l),
(62,420,l),
(62,360,l),
(138,360,l)
);
},
{
closed = 1;
nodes = (
(456,420,l),
(380,420,l),
(380,360,l),
(456,360,l)
);
},
{
closed = 1;
nodes = (
(408,240,l),
(97,240,l),
(97,180,l),
(408,180,l)
);
},
{
closed = 1;
nodes = (
(331,300,l),
(174,300,l),
(174,240,l),
(331,240,l)
);
},
{
closed = 1;
nodes = (
(294,360,l),
(212,360,l),
(212,300,l),
(294,300,l)
);
}
);
};
layerId = "6E00C01D-8562-4DD7-AEA9-E2E0AAE53370";
shapes = (
{
alignment = -1;
pos = (123,180);
ref = bar.2;
},
{
alignment = -1;
pos = (72,420);
ref = bar.2;
},
{
alignment = -1;
pos = (60,480);
ref = bar.2;
},
{
alignment = -1;
pos = (48,540);
ref = bar.2;
},
{
alignment = -1;
pos = (36,600);
ref = bar.2;
},
{
alignment = -1;
pos = (24,660);
ref = bar.2;
},
{
alignment = -1;
pos = (9,720);
ref = bar.2;
},
{
alignment = -1;
pos = (87,360);
ref = bar.2;
},
{
alignment = -1;
pos = (147,60);
ref = bar.3;
},
{
alignment = -1;
pos = (158,0);
ref = bar.3;
},
{
alignment = -1;
pos = (99,300);
ref = bar.2;
},
{
alignment = -1;
pos = (111,240);
ref = bar.2;
},
{
alignment = -1;
pos = (135,120);
ref = bar.2;
},
{
alignment = -1;
pos = (167,60);
ref = bar.3;
},
{
alignment = -1;
pos = (-3,780);
ref = bar.2;
},
{
alignment = -1;
pos = (-15,840);
ref = bar.2;
},
{
alignment = -1;
pos = (-27,900);
ref = bar.2;
},
{
alignment = -1;
pos = (343,180);
ref = bar.2;
},
{
alignment = -1;
pos = (394,420);
ref = bar.2;
},
{
alignment = -1;
pos = (406,480);
ref = bar.2;
},
{
alignment = -1;
pos = (418,540);
ref = bar.2;
},
{
alignment = -1;
pos = (430,600);
ref = bar.2;
},
{
alignment = -1;
pos = (442,660);
ref = bar.2;
},
{
alignment = -1;
pos = (457,720);
ref = bar.2;
},
{
alignment = -1;
pos = (379,360);
ref = bar.2;
},
{
alignment = -1;
pos = (352,60);
ref = bar.3;
},
{
alignment = -1;
pos = (341,0);
ref = bar.3;
},
{
alignment = -1;
pos = (367,300);
ref = bar.2;
},
{
alignment = -1;
pos = (355,240);
ref = bar.2;
},
{
alignment = -1;
pos = (331,120);
ref = bar.2;
},
{
alignment = -1;
pos = (332,60);
ref = bar.3;
},
{
alignment = -1;
pos = (469,780);
ref = bar.2;
},
{
alignment = -1;
pos = (481,840);
ref = bar.2;
},
{
alignment = -1;
pos = (493,900);
ref = bar.2;
},
{
alignment = -1;
pos = (239,120);
ref = bar.2;
},
{
alignment = -1;
pos = (244,180);
ref = bar.2;
},
{
alignment = -1;
pos = (243,240);
ref = bar.2;
},
{
alignment = -1;
pos = (281,300);
ref = bar.2;
},
{
alignment = -1;
pos = (181,300);
ref = bar.2;
},
{
alignment = -1;
pos = (231,360);
ref = bar.5;
},
{
alignment = -1;
pos = (131,360);
ref = bar.5;
}
);
width = 670;
}
);
unicode = 87;
},
{
glyphname = X;
lastChange = "2025-02-27 05:17:47 +0000";
layers = (
{
background = {
shapes = (
{
closed = 1;
nodes = (
(206,420,o),
(218,433,o),
(218,451,cs),
(218,467,o),
(206,480,o),
(192,480,cs),
(175,480,o),
(164,467,o),
(164,451,cs),
(164,433,o),
(175,420,o),
(192,420,cs)
);
},
{
closed = 1;
nodes = (
(350,420,o),
(362,433,o),
(362,451,cs),
(362,467,o),
(350,480,o),
(336,480,cs),
(319,480,o),
(308,467,o),
(308,451,cs),
(308,433,o),
(319,420,o),
(336,420,cs)
);
},
{
closed = 1;
nodes = (
(192,420,l),
(336,420,l),
(336,480,l),
(192,480,l)
);
},
{
closed = 1;
nodes = (
(89,720,o),
(102,733,o),
(102,751,cs),
(102,767,o),
(89,780,o),
(73,780,cs),
(55,780,o),
(42,767,o),
(42,751,cs),
(42,733,o),
(55,720,o),
(73,720,cs)
);
},
{
closed = 1;
nodes = (
(149,720,o),
(162,733,o),
(162,751,cs),
(162,767,o),
(149,780,o),
(133,780,cs),
(115,780,o),
(102,767,o),
(102,751,cs),
(102,733,o),
(115,720,o),
(133,720,cs)
);
},
{
closed = 1;
nodes = (
(73,720,l),
(133,720,l),
(133,780,l),
(73,780,l)
);
},
{
closed = 1;
nodes = (
(407,720,o),
(420,733,o),
(420,751,cs),
(420,767,o),
(407,780,o),
(391,780,cs),
(373,780,o),
(360,767,o),
(360,751,cs),
(360,733,o),
(373,720,o),
(391,720,cs)
);
},
{
closed = 1;
nodes = (
(467,720,o),
(480,733,o),
(480,751,cs),
(480,767,o),
(467,780,o),
(451,780,cs),
(433,780,o),
(420,767,o),
(420,751,cs),
(420,733,o),
(433,720,o),
(451,720,cs)
);
},
{
closed = 1;
nodes = (
(391,720,l),
(451,720,l),
(451,780,l),
(391,780,l)
);
},
{
closed = 1;
nodes = (
(89,660,o),
(102,673,o),
(102,691,cs),
(102,707,o),
(89,720,o),
(73,720,cs),
(55,720,o),
(42,707,o),
(42,691,cs),
(42,673,o),
(55,660,o),
(73,660,cs)
);
},
{
closed = 1;
nodes = (
(149,660,o),
(162,673,o),
(162,691,cs),
(162,707,o),
(149,720,o),
(133,720,cs),
(115,720,o),
(102,707,o),
(102,691,cs),
(102,673,o),
(115,660,o),
(133,660,cs)
);
},
{
closed = 1;
nodes = (
(73,660,l),
(133,660,l),
(133,720,l),
(73,720,l)
);
},
{
closed = 1;
nodes = (
(407,660,o),
(420,673,o),
(420,691,cs),
(420,707,o),
(407,720,o),
(391,720,cs),
(373,720,o),
(360,707,o),
(360,691,cs),
(360,673,o),
(373,660,o),
(391,660,cs)
);
},
{
closed = 1;
nodes = (
(467,660,o),
(480,673,o),
(480,691,cs),
(480,707,o),
(467,720,o),
(451,720,cs),
(433,720,o),
(420,707,o),
(420,691,cs),
(420,673,o),
(433,660,o),
(451,660,cs)
);
},
{
closed = 1;
nodes = (
(391,660,l),
(451,660,l),
(451,720,l),
(391,720,l)
);
},
{
closed = 1;
nodes = (
(119,600,o),
(132,613,o),
(132,631,cs),
(132,647,o),
(119,660,o),
(103,660,cs),
(85,660,o),
(72,647,o),
(72,631,cs),
(72,613,o),
(85,600,o),
(103,600,cs)
);
},
{
closed = 1;
nodes = (
(179,600,o),
(192,613,o),
(192,631,cs),
(192,647,o),
(179,660,o),
(163,660,cs),
(145,660,o),
(132,647,o),
(132,631,cs),
(132,613,o),
(145,600,o),
(163,600,cs)
);
},
{
closed = 1;
nodes = (
(103,600,l),
(163,600,l),
(163,660,l),
(103,660,l)
);
},
{
closed = 1;
nodes = (
(377,600,o),
(390,613,o),
(390,631,cs),
(390,647,o),
(377,660,o),
(361,660,cs),
(343,660,o),
(330,647,o),
(330,631,cs),
(330,613,o),
(343,600,o),
(361,600,cs)
);
},
{
closed = 1;
nodes = (
(437,600,o),
(450,613,o),
(450,631,cs),
(450,647,o),
(437,660,o),
(421,660,cs),
(403,660,o),
(390,647,o),
(390,631,cs),
(390,613,o),
(403,600,o),
(421,600,cs)
);
},
{
closed = 1;
nodes = (
(361,600,l),
(421,600,l),
(421,660,l),
(361,660,l)
);
},
{
closed = 1;
nodes = (
(149,540,o),
(162,553,o),
(162,571,cs),
(162,587,o),
(149,600,o),
(133,600,cs),
(115,600,o),
(102,587,o),
(102,571,cs),
(102,553,o),
(115,540,o),
(133,540,cs)
);
},
{
closed = 1;
nodes = (
(209,540,o),
(222,553,o),
(222,571,cs),
(222,587,o),
(209,600,o),
(193,600,cs),
(175,600,o),
(162,587,o),
(162,571,cs),
(162,553,o),
(175,540,o),
(193,540,cs)
);
},
{
closed = 1;
nodes = (
(133,540,l),
(193,540,l),
(193,600,l),
(133,600,l)
);
},
{
closed = 1;
nodes = (
(347,540,o),
(360,553,o),
(360,571,cs),
(360,587,o),
(347,600,o),
(331,600,cs),
(313,600,o),
(300,587,o),
(300,571,cs),
(300,553,o),
(313,540,o),
(331,540,cs)
);
},
{
closed = 1;
nodes = (
(407,540,o),
(420,553,o),
(420,571,cs),
(420,587,o),
(407,600,o),
(391,600,cs),
(373,600,o),
(360,587,o),
(360,571,cs),
(360,553,o),
(373,540,o),
(391,540,cs)
);
},
{
closed = 1;
nodes = (
(331,540,l),
(391,540,l),
(391,600,l),
(331,600,l)
);
},
{
closed = 1;
nodes = (
(179,480,o),
(192,493,o),
(192,511,cs),
(192,527,o),
(179,540,o),
(163,540,cs),
(145,540,o),
(132,527,o),
(132,511,cs),
(132,493,o),
(145,480,o),
(163,480,cs)
);
},
{
closed = 1;
nodes = (
(239,480,o),
(252,493,o),
(252,511,cs),
(252,527,o),
(239,540,o),
(223,540,cs),
(205,540,o),
(192,527,o),
(192,511,cs),
(192,493,o),
(205,480,o),
(223,480,cs)
);
},
{
closed = 1;
nodes = (
(163,480,l),
(223,480,l),
(223,540,l),
(163,540,l)
);
},
{
closed = 1;
nodes = (
(317,480,o),
(330,493,o),
(330,511,cs),
(330,527,o),
(317,540,o),
(301,540,cs),
(283,540,o),
(270,527,o),
(270,511,cs),
(270,493,o),
(283,480,o),
(301,480,cs)
);
},
{
closed = 1;
nodes = (
(377,480,o),
(390,493,o),
(390,511,cs),
(390,527,o),
(377,540,o),
(361,540,cs),
(343,540,o),
(330,527,o),
(330,511,cs),
(330,493,o),
(343,480,o),
(361,480,cs)
);
},
{
closed = 1;
nodes = (
(301,480,l),
(361,480,l),
(361,540,l),
(301,540,l)
);
},
{
closed = 1;
nodes = (
(246,360,o),
(259,373,o),
(259,391,cs),
(259,407,o),
(246,420,o),
(230,420,cs),
(212,420,o),
(199,407,o),
(199,391,cs),
(199,373,o),
(212,360,o),
(230,360,cs)
);
},
{
closed = 1;
nodes = (
(306,360,o),
(319,373,o),
(319,391,cs),
(319,407,o),
(306,420,o),
(290,420,cs),
(272,420,o),
(259,407,o),
(259,391,cs),
(259,373,o),
(272,360,o),
(290,360,cs)
);
},
{
closed = 1;
nodes = (
(230,360,l),
(290,360,l),
(290,420,l),
(230,420,l)
);
},
{
closed = 1;
nodes = (
(206,300,o),
(218,313,o),
(218,331,cs),
(218,347,o),
(206,360,o),
(192,360,cs),
(175,360,o),
(164,347,o),
(164,331,cs),
(164,313,o),
(175,300,o),
(192,300,cs)
);
},
{
closed = 1;
nodes = (
(350,300,o),
(362,313,o),
(362,331,cs),
(362,347,o),
(350,360,o),
(336,360,cs),
(319,360,o),
(308,347,o),
(308,331,cs),
(308,313,o),
(319,300,o),
(336,300,cs)
);
},
{
closed = 1;
nodes = (
(192,300,l),
(336,300,l),
(336,360,l),
(192,360,l)
);
},
{
closed = 1;
nodes = (
(179,240,o),
(192,253,o),
(192,271,cs),
(192,287,o),
(179,300,o),
(163,300,cs),
(145,300,o),
(132,287,o),
(132,271,cs),
(132,253,o),
(145,240,o),
(163,240,cs)
);
},
{
closed = 1;
nodes = (
(239,240,o),
(252,253,o),
(252,271,cs),
(252,287,o),
(239,300,o),
(223,300,cs),
(205,300,o),
(192,287,o),
(192,271,cs),
(192,253,o),
(205,240,o),
(223,240,cs)
);
},
{
closed = 1;
nodes = (
(163,240,l),
(223,240,l),
(223,300,l),
(163,300,l)
);
},
{
closed = 1;
nodes = (
(317,240,o),
(330,253,o),
(330,271,cs),
(330,287,o),
(317,300,o),
(301,300,cs),
(283,300,o),
(270,287,o),
(270,271,cs),
(270,253,o),
(283,240,o),
(301,240,cs)
);
},
{
closed = 1;
nodes = (
(377,240,o),
(390,253,o),
(390,271,cs),
(390,287,o),
(377,300,o),
(361,300,cs),
(343,300,o),
(330,287,o),
(330,271,cs),
(330,253,o),
(343,240,o),
(361,240,cs)
);
},
{
closed = 1;
nodes = (
(301,240,l),
(361,240,l),
(361,300,l),
(301,300,l)
);
},
{
closed = 1;
nodes = (
(149,180,o),
(162,193,o),
(162,211,cs),
(162,227,o),
(149,240,o),
(133,240,cs),
(115,240,o),
(102,227,o),
(102,211,cs),
(102,193,o),
(115,180,o),
(133,180,cs)
);
},
{
closed = 1;
nodes = (
(209,180,o),
(222,193,o),
(222,211,cs),
(222,227,o),
(209,240,o),
(193,240,cs),
(175,240,o),
(162,227,o),
(162,211,cs),
(162,193,o),
(175,180,o),
(193,180,cs)
);
},
{
closed = 1;
nodes = (
(133,180,l),
(193,180,l),
(193,240,l),
(133,240,l)
);
},
{
closed = 1;
nodes = (
(347,180,o),
(360,193,o),
(360,211,cs),
(360,227,o),
(347,240,o),
(331,240,cs),
(313,240,o),
(300,227,o),
(300,211,cs),
(300,193,o),
(313,180,o),
(331,180,cs)
);
},
{
closed = 1;
nodes = (
(407,180,o),
(420,193,o),
(420,211,cs),
(420,227,o),
(407,240,o),
(391,240,cs),
(373,240,o),
(360,227,o),
(360,211,cs),
(360,193,o),
(373,180,o),
(391,180,cs)
);
},
{
closed = 1;
nodes = (
(331,180,l),
(391,180,l),
(391,240,l),
(331,240,l)
);
},
{
closed = 1;
nodes = (
(119,120,o),
(132,133,o),
(132,151,cs),
(132,167,o),
(119,180,o),
(103,180,cs),
(85,180,o),
(72,167,o),
(72,151,cs),
(72,133,o),
(85,120,o),
(103,120,cs)
);
},
{
closed = 1;
nodes = (
(179,120,o),
(192,133,o),
(192,151,cs),
(192,167,o),
(179,180,o),
(163,180,cs),
(145,180,o),
(132,167,o),
(132,151,cs),
(132,133,o),
(145,120,o),
(163,120,cs)
);
},
{
closed = 1;
nodes = (
(103,120,l),
(163,120,l),
(163,180,l),
(103,180,l)
);
},
{
closed = 1;
nodes = (
(377,120,o),
(390,133,o),
(390,151,cs),
(390,167,o),
(377,180,o),
(361,180,cs),
(343,180,o),
(330,167,o),
(330,151,cs),
(330,133,o),
(343,120,o),
(361,120,cs)
);
},
{
closed = 1;
nodes = (
(437,120,o),
(450,133,o),
(450,151,cs),
(450,167,o),
(437,180,o),
(421,180,cs),
(403,180,o),
(390,167,o),
(390,151,cs),
(390,133,o),
(403,120,o),
(421,120,cs)
);
},
{
closed = 1;
nodes = (
(361,120,l),
(421,120,l),
(421,180,l),
(361,180,l)
);
},
{
closed = 1;
nodes = (
(89,60,o),
(102,73,o),
(102,91,cs),
(102,107,o),
(89,120,o),
(73,120,cs),
(55,120,o),
(42,107,o),
(42,91,cs),
(42,73,o),
(55,60,o),
(73,60,cs)
);
},
{
closed = 1;
nodes = (
(149,60,o),
(162,73,o),
(162,91,cs),
(162,107,o),
(149,120,o),
(133,120,cs),
(115,120,o),
(102,107,o),
(102,91,cs),
(102,73,o),
(115,60,o),
(133,60,cs)
);
},
{
closed = 1;
nodes = (
(73,60,l),
(133,60,l),
(133,120,l),
(73,120,l)
);
},
{
closed = 1;
nodes = (
(407,60,o),
(420,73,o),
(420,91,cs),
(420,107,o),
(407,120,o),
(391,120,cs),
(373,120,o),
(360,107,o),
(360,91,cs),
(360,73,o),
(373,60,o),
(391,60,cs)
);
},
{
closed = 1;
nodes = (
(467,60,o),
(480,73,o),
(480,91,cs),
(480,107,o),
(467,120,o),
(451,120,cs),
(433,120,o),
(420,107,o),
(420,91,cs),
(420,73,o),
(433,60,o),
(451,60,cs)
);
},
{
closed = 1;
nodes = (
(391,60,l),
(451,60,l),
(451,120,l),
(391,120,l)
);
},
{
closed = 1;
nodes = (
(89,0,o),
(102,13,o),
(102,31,cs),
(102,47,o),
(89,60,o),
(73,60,cs),
(55,60,o),
(42,47,o),
(42,31,cs),
(42,13,o),
(55,0,o),
(73,0,cs)
);
},
{
closed = 1;
nodes = (
(149,0,o),
(162,13,o),
(162,31,cs),
(162,47,o),
(149,60,o),
(133,60,cs),
(115,60,o),
(102,47,o),
(102,31,cs),
(102,13,o),
(115,0,o),
(133,0,cs)
);
},
{
closed = 1;
nodes = (
(73,0,l),
(133,0,l),
(133,60,l),
(73,60,l)
);
},
{
closed = 1;
nodes = (
(407,0,o),
(420,13,o),
(420,31,cs),
(420,47,o),
(407,60,o),
(391,60,cs),
(373,60,o),
(360,47,o),
(360,31,cs),
(360,13,o),
(373,0,o),
(391,0,cs)
);
},
{
closed = 1;
nodes = (
(467,0,o),
(480,13,o),
(480,31,cs),
(480,47,o),
(467,60,o),
(451,60,cs),
(433,60,o),
(420,47,o),
(420,31,cs),
(420,13,o),
(433,0,o),
(451,0,cs)
);
},
{
closed = 1;
nodes = (
(391,0,l),
(451,0,l),
(451,60,l),
(391,60,l)
);
}
);
};
backgroundImage = {
imagePath = "../../../../Desktop/Screenshot 2024-04-17 at 12.09.37 PM.png";
locked = 1;
pos = (20,-10);
scale = (1.593,1.593);
};
layerId = "6E00C01D-8562-4DD7-AEA9-E2E0AAE53370";
shapes = (
{
alignment = -1;
pos = (181,540);
ref = bar.3;
},
{
alignment = -1;
pos = (29,840);
ref = bar.2;
},
{
alignment = -1;
pos = (437,840);
ref = bar.2;
},
{
alignment = -1;
pos = (59,780);
ref = bar.2;
},
{
alignment = -1;
pos = (407,780);
ref = bar.2;
},
{
alignment = -1;
pos = (89,720);
ref = bar.2;
},
{
alignment = -1;
pos = (377,720);
ref = bar.2;
},
{
alignment = -1;
pos = (119,660);
ref = bar.2;
},
{
alignment = -1;
pos = (347,660);
ref = bar.2;
},
{
alignment = -1;
pos = (149,600);
ref = bar.2;
},
{
alignment = -1;
pos = (317,600);
ref = bar.2;
},
{
alignment = -1;
pos = (208,480);
ref = bar.2;
},
{
alignment = -1;
pos = (181,420);
ref = bar.3;
},
{
alignment = -1;
pos = (149,360);
ref = bar.2;
},
{
alignment = -1;
pos = (317,360);
ref = bar.2;
},
{
alignment = -1;
pos = (121,300);
ref = bar.2;
},
{
alignment = -1;
pos = (345,300);
ref = bar.2;
},
{
alignment = -1;
pos = (93,240);
ref = bar.2;
},
{
alignment = -1;
pos = (373,240);
ref = bar.2;
},
{
alignment = -1;
pos = (65,180);
ref = bar.2;
},
{
alignment = -1;
pos = (401,180);
ref = bar.2;
},
{
alignment = -1;
pos = (37,120);
ref = bar.2;
},
{
alignment = -1;
pos = (429,120);
ref = bar.2;
},
{
alignment = -1;
pos = (317,540);
ref = bar.3;
},
{
alignment = -1;
pos = (322,420);
ref = bar.3;
},
{
alignment = -1;
pos = (229,600);
ref = bar.2;
},
{
alignment = -1;
pos = (239,360);
ref = bar.2;
},
{
alignment = -1;
pos = (251,420);
ref = bar.3;
},
{
alignment = -1;
pos = (251,540);
ref = bar.3;
},
{
alignment = -1;
pos = (251,480);
ref = bar.2;
},
{
alignment = -1;
pos = (9,60);
ref = bar.2;
},
{
alignment = -1;
pos = (457,60);
ref = bar.2;
},
{
alignment = -1;
pos = (-1,900);
ref = bar.2;
},
{
alignment = -1;
pos = (467,900);
ref = bar.2;
},
{
alignment = -1;
pos = (-13,0);
ref = bar.2;
},
{
alignment = -1;
pos = (479,0);
ref = bar.2;
}
);
width = 670;
}
);
unicode = 88;
},
{
glyphname = c;
lastChange = "2025-02-26 01:12:07 +0000";
layers = (
{
background = {
shapes = (
{
closed = 1;
nodes = (
(285,780,o),
(298,793,o),
(298,811,cs),
(298,827,o),
(285,840,o),
(269,840,cs),
(251,840,o),
(238,827,o),
(238,811,cs),
(238,793,o),
(251,780,o),
(269,780,cs)
);
},
{
closed = 1;
nodes = (
(455,780,o),
(468,793,o),
(468,811,cs),
(468,827,o),
(455,840,o),
(439,840,cs),
(421,840,o),
(408,827,o),
(408,811,cs),
(408,793,o),
(421,780,o),
(439,780,cs)
);
},
{
closed = 1;
nodes = (
(269,780,l),
(439,780,l),
(439,840,l),
(269,840,l)
);
},
{
closed = 1;
nodes = (
(185,840,o),
(198,853,o),
(198,871,cs),
(198,887,o),
(185,900,o),
(169,900,cs),
(151,900,o),
(138,887,o),
(138,871,cs),
(138,853,o),
(151,840,o),
(169,840,cs)
);
},
{
closed = 1;
nodes = (
(355,840,o),
(368,853,o),
(368,871,cs),
(368,887,o),
(355,900,o),
(339,900,cs),
(321,900,o),
(308,887,o),
(308,871,cs),
(308,853,o),
(321,840,o),
(339,840,cs)
);
},
{
closed = 1;
nodes = (
(169,840,l),
(339,840,l),
(339,900,l),
(169,900,l)
);
},
{
closed = 1;
nodes = (
(285,900,o),
(298,913,o),
(298,931,cs),
(298,947,o),
(285,960,o),
(269,960,cs),
(251,960,o),
(238,947,o),
(238,931,cs),
(238,913,o),
(251,900,o),
(269,900,cs)
);
},
{
closed = 1;
nodes = (
(455,900,o),
(468,913,o),
(468,931,cs),
(468,947,o),
(455,960,o),
(439,960,cs),
(421,960,o),
(408,947,o),
(408,931,cs),
(408,913,o),
(421,900,o),
(439,900,cs)
);
},
{
closed = 1;
nodes = (
(269,900,l),
(439,900,l),
(439,960,l),
(269,960,l)
);
},
{
closed = 1;
nodes = (
(185,960,o),
(198,973,o),
(198,991,cs),
(198,1007,o),
(185,1020,o),
(169,1020,cs),
(151,1020,o),
(138,1007,o),
(138,991,cs),
(138,973,o),
(151,960,o),
(169,960,cs)
);
},
{
closed = 1;
nodes = (
(355,960,o),
(368,973,o),
(368,991,cs),
(368,1007,o),
(355,1020,o),
(339,1020,cs),
(321,1020,o),
(308,1007,o),
(308,991,cs),
(308,973,o),
(321,960,o),
(339,960,cs)
);
},
{
closed = 1;
nodes = (
(169,960,l),
(339,960,l),
(339,1020,l),
(169,1020,l)
);
},
{
closed = 1;
nodes = (
(285,1020,o),
(298,1033,o),
(298,1051,cs),
(298,1067,o),
(285,1080,o),
(269,1080,cs),
(251,1080,o),
(238,1067,o),
(238,1051,cs),
(238,1033,o),
(251,1020,o),
(269,1020,cs)
);
},
{
closed = 1;
nodes = (
(455,1020,o),
(468,1033,o),
(468,1051,cs),
(468,1067,o),
(455,1080,o),
(439,1080,cs),
(421,1080,o),
(408,1067,o),
(408,1051,cs),
(408,1033,o),
(421,1020,o),
(439,1020,cs)
);
},
{
closed = 1;
nodes = (
(269,1020,l),
(439,1020,l),
(439,1080,l),
(269,1080,l)
);
}
);
};
backgroundImage = {
imagePath = "/var/folders/pw/s1l1bh2d0c559xgnrxlndqpm0000gq/T/TemporaryItems/NSIRD_screencaptureui_YchlW6/Screenshot 2024-04-17 at 2.18.26 PM.png";
pos = (-206,-1169);
scale = (6.4989,6.4989);
};
layerId = "6E00C01D-8562-4DD7-AEA9-E2E0AAE53370";
shapes = (
{
alignment = -1;
pos = (88,120);
ref = bar.2;
},
{
alignment = -1;
pos = (58,180);
ref = bar.2;
},
{
alignment = -1;
pos = (58,240);
ref = bar.2;
},
{
alignment = -1;
pos = (58,300);
ref = bar.2;
},
{
alignment = -1;
pos = (58,420);
ref = bar.2;
},
{
alignment = -1;
pos = (58,480);
ref = bar.2;
},
{
alignment = -1;
pos = (58,540);
ref = bar.2;
},
{
alignment = -1;
pos = (88,600);
ref = bar.2;
},
{
alignment = -1;
pos = (356,60);
ref = bar.2;
},
{
alignment = -1;
pos = (380,120);
ref = bar.2;
},
{
alignment = -1;
pos = (408,180);
ref = bar.2;
},
{
alignment = -1;
pos = (408,540);
ref = bar.2;
},
{
alignment = -1;
pos = (388,600);
ref = bar.2;
},
{
alignment = -1;
pos = (356,660);
ref = bar.2;
},
{
alignment = -1;
pos = (58,360);
ref = bar.2;
},
{
alignment = -1;
pos = (171,0);
ref = bar.7;
},
{
alignment = -1;
pos = (125,60);
ref = bar.7;
},
{
alignment = -1;
pos = (155,660);
ref = bar.7;
},
{
alignment = -1;
pos = (168,720);
ref = bar.7;
},
{
alignment = -1;
pos = (125,660);
ref = bar.7;
}
);
width = 670;
}
);
unicode = 99;
},
{
glyphname = j;
lastChange = "2025-02-27 20:27:00 +0000";
layers = (
{
backgroundImage = {
imagePath = "../../../../Desktop/Screenshot 2024-04-17 at 12.20.12 PM.png";
locked = 1;
pos = (57,-13);
scale = (2.2835,2.2835);
};
layerId = "6E00C01D-8562-4DD7-AEA9-E2E0AAE53370";
shapes = (
{
alignment = -1;
pos = (68,120);
ref = bar.2;
},
{
alignment = -1;
pos = (38,180);
ref = bar.2;
},
{
alignment = -1;
pos = (38,240);
ref = bar.2;
},
{
closed = 1;
nodes = (
(157,300,o),
(170,313,o),
(170,331,cs),
(170,347,o),
(157,360,o),
(141,360,cs),
(123,360,o),
(110,347,o),
(110,331,cs),
(110,313,o),
(123,300,o),
(141,300,cs)
);
},
{
closed = 1;
nodes = (
(227,300,o),
(240,313,o),
(240,331,cs),
(240,347,o),
(227,360,o),
(211,360,cs),
(193,360,o),
(180,347,o),
(180,331,cs),
(180,313,o),
(193,300,o),
(211,300,cs)
);
},
{
closed = 1;
nodes = (
(141,300,l),
(211,300,l),
(211,360,l),
(141,360,l)
);
},
{
alignment = -1;
pos = (336,60);
ref = bar.2;
},
{
alignment = -1;
pos = (360,120);
ref = bar.2;
},
{
alignment = -1;
pos = (388,180);
ref = bar.2;
},
{
alignment = -1;
pos = (388,240);
ref = bar.2;
},
{
alignment = -1;
pos = (388,300);
ref = bar.2;
},
{
alignment = -1;
pos = (388,360);
ref = bar.2;
},
{
alignment = -1;
pos = (388,420);
ref = bar.2;
},
{
alignment = -1;
pos = (388,480);
ref = bar.2;
},
{
alignment = -1;
pos = (388,540);
ref = bar.2;
},
{
alignment = -1;
pos = (151,0);
ref = bar.7;
},
{
alignment = -1;
pos = (105,60);
ref = bar.7;
},
{
alignment = -1;
pos = (388,600);
ref = bar.2;
},
{
alignment = -1;
pos = (388,660);
ref = bar.2;
},
{
alignment = -1;
pos = (388,720);
ref = bar.2;
}
);
width = 670;
}
);
unicode = 106;
},
{
glyphname = k;
lastChange = "2025-02-26 01:44:15 +0000";
layers = (
{
background = {
shapes = (
{
closed = 1;
nodes = (
(89,0,o),
(102,13,o),
(102,31,cs),
(102,47,o),
(89,60,o),
(73,60,cs),
(55,60,o),
(42,47,o),
(42,31,cs),
(42,13,o),
(55,0,o),
(73,0,cs)
);
},
{
closed = 1;
nodes = (
(149,0,o),
(162,13,o),
(162,31,cs),
(162,47,o),
(149,60,o),
(133,60,cs),
(115,60,o),
(102,47,o),
(102,31,cs),
(102,13,o),
(115,0,o),
(133,0,cs)
);
},
{
closed = 1;
nodes = (
(73,0,l),
(133,0,l),
(133,60,l),
(73,60,l)
);
},
{
closed = 1;
nodes = (
(89,60,o),
(102,73,o),
(102,91,cs),
(102,107,o),
(89,120,o),
(73,120,cs),
(55,120,o),
(42,107,o),
(42,91,cs),
(42,73,o),
(55,60,o),
(73,60,cs)
);
},
{
closed = 1;
nodes = (
(149,60,o),
(162,73,o),
(162,91,cs),
(162,107,o),
(149,120,o),
(133,120,cs),
(115,120,o),
(102,107,o),
(102,91,cs),
(102,73,o),
(115,60,o),
(133,60,cs)
);
},
{
closed = 1;
nodes = (
(73,60,l),
(133,60,l),
(133,120,l),
(73,120,l)
);
},
{
closed = 1;
nodes = (
(89,120,o),
(102,133,o),
(102,151,cs),
(102,167,o),
(89,180,o),
(73,180,cs),
(55,180,o),
(42,167,o),
(42,151,cs),
(42,133,o),
(55,120,o),
(73,120,cs)
);
},
{
closed = 1;
nodes = (
(149,120,o),
(162,133,o),
(162,151,cs),
(162,167,o),
(149,180,o),
(133,180,cs),
(115,180,o),
(102,167,o),
(102,151,cs),
(102,133,o),
(115,120,o),
(133,120,cs)
);
},
{
closed = 1;
nodes = (
(73,120,l),
(133,120,l),
(133,180,l),
(73,180,l)
);
},
{
closed = 1;
nodes = (
(89,180,o),
(102,193,o),
(102,211,cs),
(102,227,o),
(89,240,o),
(73,240,cs),
(55,240,o),
(42,227,o),
(42,211,cs),
(42,193,o),
(55,180,o),
(73,180,cs)
);
},
{
closed = 1;
nodes = (
(149,180,o),
(162,193,o),
(162,211,cs),
(162,227,o),
(149,240,o),
(133,240,cs),
(115,240,o),
(102,227,o),
(102,211,cs),
(102,193,o),
(115,180,o),
(133,180,cs)
);
},
{
closed = 1;
nodes = (
(73,180,l),
(133,180,l),
(133,240,l),
(73,240,l)
);
},
{
closed = 1;
nodes = (
(89,240,o),
(102,253,o),
(102,271,cs),
(102,287,o),
(89,300,o),
(73,300,cs),
(55,300,o),
(42,287,o),
(42,271,cs),
(42,253,o),
(55,240,o),
(73,240,cs)
);
},
{
closed = 1;
nodes = (
(149,240,o),
(162,253,o),
(162,271,cs),
(162,287,o),
(149,300,o),
(133,300,cs),
(115,300,o),
(102,287,o),
(102,271,cs),
(102,253,o),
(115,240,o),
(133,240,cs)
);
},
{
closed = 1;
nodes = (
(73,240,l),
(133,240,l),
(133,300,l),
(73,300,l)
);
},
{
closed = 1;
nodes = (
(89,300,o),
(102,313,o),
(102,331,cs),
(102,347,o),
(89,360,o),
(73,360,cs),
(55,360,o),
(42,347,o),
(42,331,cs),
(42,313,o),
(55,300,o),
(73,300,cs)
);
},
{
closed = 1;
nodes = (
(149,300,o),
(162,313,o),
(162,331,cs),
(162,347,o),
(149,360,o),
(133,360,cs),
(115,360,o),
(102,347,o),
(102,331,cs),
(102,313,o),
(115,300,o),
(133,300,cs)
);
},
{
closed = 1;
nodes = (
(73,300,l),
(133,300,l),
(133,360,l),
(73,360,l)
);
},
{
closed = 1;
nodes = (
(89,360,o),
(102,373,o),
(102,391,cs),
(102,407,o),
(89,420,o),
(73,420,cs),
(55,420,o),
(42,407,o),
(42,391,cs),
(42,373,o),
(55,360,o),
(73,360,cs)
);
},
{
closed = 1;
nodes = (
(249,360,o),
(262,373,o),
(262,391,cs),
(262,407,o),
(249,420,o),
(233,420,cs),
(215,420,o),
(202,407,o),
(202,391,cs),
(202,373,o),
(215,360,o),
(233,360,cs)
);
},
{
closed = 1;
nodes = (
(73,360,l),
(233,360,l),
(233,420,l),
(73,420,l)
);
},
{
closed = 1;
nodes = (
(89,420,o),
(102,433,o),
(102,451,cs),
(102,467,o),
(89,480,o),
(73,480,cs),
(55,480,o),
(42,467,o),
(42,451,cs),
(42,433,o),
(55,420,o),
(73,420,cs)
);
},
{
closed = 1;
nodes = (
(149,420,o),
(162,433,o),
(162,451,cs),
(162,467,o),
(149,480,o),
(133,480,cs),
(115,480,o),
(102,467,o),
(102,451,cs),
(102,433,o),
(115,420,o),
(133,420,cs)
);
},
{
closed = 1;
nodes = (
(73,420,l),
(133,420,l),
(133,480,l),
(73,480,l)
);
},
{
closed = 1;
nodes = (
(89,480,o),
(102,493,o),
(102,511,cs),
(102,527,o),
(89,540,o),
(73,540,cs),
(55,540,o),
(42,527,o),
(42,511,cs),
(42,493,o),
(55,480,o),
(73,480,cs)
);
},
{
closed = 1;
nodes = (
(149,480,o),
(162,493,o),
(162,511,cs),
(162,527,o),
(149,540,o),
(133,540,cs),
(115,540,o),
(102,527,o),
(102,511,cs),
(102,493,o),
(115,480,o),
(133,480,cs)
);
},
{
closed = 1;
nodes = (
(73,480,l),
(133,480,l),
(133,540,l),
(73,540,l)
);
},
{
closed = 1;
nodes = (
(89,540,o),
(102,553,o),
(102,571,cs),
(102,587,o),
(89,600,o),
(73,600,cs),
(55,600,o),
(42,587,o),
(42,571,cs),
(42,553,o),
(55,540,o),
(73,540,cs)
);
},
{
closed = 1;
nodes = (
(149,540,o),
(162,553,o),
(162,571,cs),
(162,587,o),
(149,600,o),
(133,600,cs),
(115,600,o),
(102,587,o),
(102,571,cs),
(102,553,o),
(115,540,o),
(133,540,cs)
);
},
{
closed = 1;
nodes = (
(73,540,l),
(133,540,l),
(133,600,l),
(73,600,l)
);
},
{
closed = 1;
nodes = (
(89,600,o),
(102,613,o),
(102,631,cs),
(102,647,o),
(89,660,o),
(73,660,cs),
(55,660,o),
(42,647,o),
(42,631,cs),
(42,613,o),
(55,600,o),
(73,600,cs)
);
},
{
closed = 1;
nodes = (
(149,600,o),
(162,613,o),
(162,631,cs),
(162,647,o),
(149,660,o),
(133,660,cs),
(115,660,o),
(102,647,o),
(102,631,cs),
(102,613,o),
(115,600,o),
(133,600,cs)
);
},
{
closed = 1;
nodes = (
(73,600,l),
(133,600,l),
(133,660,l),
(73,660,l)
);
},
{
closed = 1;
nodes = (
(89,660,o),
(102,673,o),
(102,691,cs),
(102,707,o),
(89,720,o),
(73,720,cs),
(55,720,o),
(42,707,o),
(42,691,cs),
(42,673,o),
(55,660,o),
(73,660,cs)
);
},
{
closed = 1;
nodes = (
(149,660,o),
(162,673,o),
(162,691,cs),
(162,707,o),
(149,720,o),
(133,720,cs),
(115,720,o),
(102,707,o),
(102,691,cs),
(102,673,o),
(115,660,o),
(133,660,cs)
);
},
{
closed = 1;
nodes = (
(73,660,l),
(133,660,l),
(133,720,l),
(73,720,l)
);
},
{
closed = 1;
nodes = (
(89,720,o),
(102,733,o),
(102,751,cs),
(102,767,o),
(89,780,o),
(73,780,cs),
(55,780,o),
(42,767,o),
(42,751,cs),
(42,733,o),
(55,720,o),
(73,720,cs)
);
},
{
closed = 1;
nodes = (
(149,720,o),
(162,733,o),
(162,751,cs),
(162,767,o),
(149,780,o),
(133,780,cs),
(115,780,o),
(102,767,o),
(102,751,cs),
(102,733,o),
(115,720,o),
(133,720,cs)
);
},
{
closed = 1;
nodes = (
(73,720,l),
(133,720,l),
(133,780,l),
(73,780,l)
);
},
{
closed = 1;
nodes = (
(514,0,o),
(527,13,o),
(527,31,cs),
(527,47,o),
(514,60,o),
(495,60,cs),
(479,60,o),
(466,47,o),
(466,31,cs),
(466,13,o),
(479,0,o),
(495,0,cs)
);
},
{
closed = 1;
nodes = (
(453,0,o),
(466,13,o),
(466,31,cs),
(466,47,o),
(453,60,o),
(434,60,cs),
(418,60,o),
(405,47,o),
(405,31,cs),
(405,13,o),
(418,0,o),
(434,0,cs)
);
},
{
closed = 1;
nodes = (
(434,60,l),
(434,0,l),
(495,0,l),
(495,60,l)
);
},
{
closed = 1;
nodes = (
(473,60,o),
(485,73,o),
(485,91,cs),
(485,107,o),
(473,120,o),
(457,120,cs),
(442,120,o),
(430,107,o),
(430,91,cs),
(430,73,o),
(442,60,o),
(457,60,cs)
);
},
{
closed = 1;
nodes = (
(418,60,o),
(430,73,o),
(430,91,cs),
(430,107,o),
(418,120,o),
(401,120,cs),
(386,120,o),
(375,107,o),
(375,91,cs),
(375,73,o),
(386,60,o),
(401,60,cs)
);
},
{
closed = 1;
nodes = (
(401,120,l),
(401,60,l),
(457,60,l),
(457,120,l)
);
},
{
closed = 1;
nodes = (
(280,240,o),
(267,227,o),
(267,209,cs),
(267,193,o),
(280,180,o),
(298,180,cs),
(314,180,o),
(327,193,o),
(327,209,cs),
(327,227,o),
(314,240,o),
(298,240,cs)
);
},
{
closed = 1;
nodes = (
(340,240,o),
(327,227,o),
(327,209,cs),
(327,193,o),
(340,180,o),
(358,180,cs),
(374,180,o),
(387,193,o),
(387,209,cs),
(387,227,o),
(374,240,o),
(358,240,cs)
);
},
{
closed = 1;
nodes = (
(358,180,l),
(358,240,l),
(298,240,l),
(298,180,l)
);
},
{
closed = 1;
nodes = (
(238,300,o),
(225,287,o),
(225,269,cs),
(225,253,o),
(238,240,o),
(256,240,cs),
(272,240,o),
(285,253,o),
(285,269,cs),
(285,287,o),
(272,300,o),
(256,300,cs)
);
},
{
closed = 1;
nodes = (
(298,300,o),
(285,287,o),
(285,269,cs),
(285,253,o),
(298,240,o),
(316,240,cs),
(332,240,o),
(345,253,o),
(345,269,cs),
(345,287,o),
(332,300,o),
(316,300,cs)
);
},
{
closed = 1;
nodes = (
(316,240,l),
(316,300,l),
(256,300,l),
(256,240,l)
);
},
{
closed = 1;
nodes = (
(196,420,o),
(209,433,o),
(209,451,cs),
(209,467,o),
(196,480,o),
(180,480,cs),
(162,480,o),
(149,467,o),
(149,451,cs),
(149,433,o),
(162,420,o),
(180,420,cs)
);
},
{
closed = 1;
nodes = (
(256,420,o),
(269,433,o),
(269,451,cs),
(269,467,o),
(256,480,o),
(240,480,cs),
(222,480,o),
(209,467,o),
(209,451,cs),
(209,433,o),
(222,420,o),
(240,420,cs)
);
},
{
closed = 1;
nodes = (
(180,420,l),
(240,420,l),
(240,480,l),
(180,480,l)
);
},
{
closed = 1;
nodes = (
(236,480,o),
(249,493,o),
(249,511,cs),
(249,527,o),
(236,540,o),
(220,540,cs),
(202,540,o),
(189,527,o),
(189,511,cs),
(189,493,o),
(202,480,o),
(220,480,cs)
);
},
{
closed = 1;
nodes = (
(296,480,o),
(309,493,o),
(309,511,cs),
(309,527,o),
(296,540,o),
(280,540,cs),
(262,540,o),
(249,527,o),
(249,511,cs),
(249,493,o),
(262,480,o),
(280,480,cs)
);
},
{
closed = 1;
nodes = (
(220,480,l),
(280,480,l),
(280,540,l),
(220,540,l)
);
},
{
closed = 1;
nodes = (
(278,540,o),
(291,553,o),
(291,571,cs),
(291,587,o),
(278,600,o),
(262,600,cs),
(244,600,o),
(231,587,o),
(231,571,cs),
(231,553,o),
(244,540,o),
(262,540,cs)
);
},
{
closed = 1;
nodes = (
(338,540,o),
(351,553,o),
(351,571,cs),
(351,587,o),
(338,600,o),
(322,600,cs),
(304,600,o),
(291,587,o),
(291,571,cs),
(291,553,o),
(304,540,o),
(322,540,cs)
);
},
{
closed = 1;
nodes = (
(262,540,l),
(322,540,l),
(322,600,l),
(262,600,l)
);
},
{
closed = 1;
nodes = (
(321,600,o),
(334,613,o),
(334,631,cs),
(334,647,o),
(321,660,o),
(305,660,cs),
(287,660,o),
(274,647,o),
(274,631,cs),
(274,613,o),
(287,600,o),
(305,600,cs)
);
},
{
closed = 1;
nodes = (
(381,600,o),
(394,613,o),
(394,631,cs),
(394,647,o),
(381,660,o),
(365,660,cs),
(347,660,o),
(334,647,o),
(334,631,cs),
(334,613,o),
(347,600,o),
(365,600,cs)
);
},
{
closed = 1;
nodes = (
(305,600,l),
(365,600,l),
(365,660,l),
(305,660,l)
);
},
{
closed = 1;
nodes = (
(363,660,o),
(376,673,o),
(376,691,cs),
(376,707,o),
(363,720,o),
(347,720,cs),
(329,720,o),
(316,707,o),
(316,691,cs),
(316,673,o),
(329,660,o),
(347,660,cs)
);
},
{
closed = 1;
nodes = (
(423,660,o),
(436,673,o),
(436,691,cs),
(436,707,o),
(423,720,o),
(407,720,cs),
(389,720,o),
(376,707,o),
(376,691,cs),
(376,673,o),
(389,660,o),
(407,660,cs)
);
},
{
closed = 1;
nodes = (
(347,660,l),
(407,660,l),
(407,720,l),
(347,720,l)
);
},
{
closed = 1;
nodes = (
(407,720,o),
(420,733,o),
(420,751,cs),
(420,767,o),
(407,780,o),
(391,780,cs),
(373,780,o),
(360,767,o),
(360,751,cs),
(360,733,o),
(373,720,o),
(391,720,cs)
);
},
{
closed = 1;
nodes = (
(467,720,o),
(480,733,o),
(480,751,cs),
(480,767,o),
(467,780,o),
(451,780,cs),
(433,780,o),
(420,767,o),
(420,751,cs),
(420,733,o),
(433,720,o),
(451,720,cs)
);
},
{
closed = 1;
nodes = (
(391,720,l),
(451,720,l),
(451,780,l),
(391,780,l)
);
},
{
closed = 1;
nodes = (
(341,120,o),
(354,133,o),
(354,151,cs),
(354,167,o),
(341,180,o),
(325,180,cs),
(307,180,o),
(294,167,o),
(294,151,cs),
(294,133,o),
(307,120,o),
(325,120,cs)
);
},
{
closed = 1;
nodes = (
(401,120,o),
(414,133,o),
(414,151,cs),
(414,167,o),
(401,180,o),
(385,180,cs),
(367,180,o),
(354,167,o),
(354,151,cs),
(354,133,o),
(367,120,o),
(385,120,cs)
);
},
{
closed = 1;
nodes = (
(325,120,l),
(385,120,l),
(385,180,l),
(325,180,l)
);
},
{
closed = 1;
nodes = (
(241,300,o),
(254,313,o),
(254,331,cs),
(254,347,o),
(241,360,o),
(225,360,cs),
(207,360,o),
(194,347,o),
(194,331,cs),
(194,313,o),
(207,300,o),
(225,300,cs)
);
},
{
closed = 1;
nodes = (
(301,300,o),
(314,313,o),
(314,331,cs),
(314,347,o),
(301,360,o),
(285,360,cs),
(267,360,o),
(254,347,o),
(254,331,cs),
(254,313,o),
(267,300,o),
(285,300,cs)
);
},
{
closed = 1;
nodes = (
(225,300,l),
(285,300,l),
(285,360,l),
(225,360,l)
);
},
{
closed = 1;
nodes = (
(149,420,o),
(162,433,o),
(162,451,cs),
(162,467,o),
(149,480,o),
(133,480,cs),
(115,480,o),
(102,467,o),
(102,451,cs),
(102,433,o),
(115,420,o),
(133,420,cs)
);
},
{
closed = 1;
nodes = (
(209,420,o),
(222,433,o),
(222,451,cs),
(222,467,o),
(209,480,o),
(193,480,cs),
(175,480,o),
(162,467,o),
(162,451,cs),
(162,433,o),
(175,420,o),
(193,420,cs)
);
},
{
closed = 1;
nodes = (
(133,420,l),
(193,420,l),
(193,480,l),
(133,480,l)
);
}
);
};
backgroundImage = {
imagePath = "/var/folders/pw/s1l1bh2d0c559xgnrxlndqpm0000gq/T/TemporaryItems/NSIRD_screencaptureui_ZOv5hv/Screenshot 2024-02-19 at 1.01.31 PM.png";
locked = 1;
pos = (-3185,-58);
scale = (8.0187,8.0187);
};
layerId = "6E00C01D-8562-4DD7-AEA9-E2E0AAE53370";
shapes = (
{
alignment = -1;
pos = (48,0);
ref = bar.2;
},
{
alignment = -1;
pos = (48,60);
ref = bar.2;
},
{
alignment = -1;
pos = (48,120);
ref = bar.2;
},
{
alignment = -1;
pos = (48,180);
ref = bar.2;
},
{
alignment = -1;
pos = (48,240);
ref = bar.2;
},
{
alignment = -1;
pos = (48,300);
ref = bar.2;
},
{
alignment = -1;
pos = (48,360);
ref = bar.4;
},
{
alignment = -1;
pos = (48,420);
ref = bar.2;
},
{
alignment = -1;
pos = (48,480);
ref = bar.2;
},
{
alignment = -1;
pos = (48,540);
ref = bar.2;
},
{
alignment = -1;
pos = (48,600);
ref = bar.2;
},
{
alignment = -1;
pos = (48,660);
ref = bar.2;
},
{
alignment = -1;
pos = (48,720);
ref = bar.2;
},
{
alignment = -1;
pos = (454,0);
ref = bar.2;
},
{
alignment = -1;
pos = (405,60);
ref = bar.2;
},
{
alignment = -1;
pos = (323,180);
ref = bar.2;
},
{
alignment = -1;
pos = (281,240);
ref = bar.2;
},
{
alignment = -1;
pos = (205,420);
ref = bar.2;
},
{
alignment = -1;
pos = (245,480);
ref = bar.2;
},
{
alignment = -1;
pos = (287,540);
ref = bar.2;
},
{
alignment = -1;
pos = (330,600);
ref = bar.2;
},
{
alignment = -1;
pos = (372,660);
ref = bar.2;
},
{
alignment = -1;
pos = (416,720);
ref = bar.2;
},
{
alignment = -1;
pos = (367,120);
ref = bar.2;
},
{
alignment = -1;
pos = (250,300);
ref = bar.2;
},
{
alignment = -1;
pos = (108,420);
ref = bar.2;
},
{
alignment = -1;
pos = (205,360);
ref = bar.2;
},
{
alignment = -1;
pos = (125,360);
ref = bar.2;
}
);
width = 670;
}
);
metricWidth = "=H";
unicode = 107;
},
{
glyphname = q;
lastChange = "2025-02-26 02:12:30 +0000";
layers = (
{
background = {
shapes = (
{
closed = 1;
nodes = (
(378,60,l),
(158,60,l),
(158,0,l),
(378,0,l)
);
},
{
closed = 1;
nodes = (
(198,120,l),
(122,120,l),
(122,60,l),
(198,60,l)
);
},
{
closed = 1;
nodes = (
(174,180,l),
(98,180,l),
(98,120,l),
(174,120,l)
);
},
{
closed = 1;
nodes = (
(150,240,l),
(74,240,l),
(74,180,l),
(150,180,l)
);
},
{
closed = 1;
nodes = (
(138,300,l),
(62,300,l),
(62,240,l),
(138,240,l)
);
},
{
closed = 1;
nodes = (
(138,360,l),
(62,360,l),
(62,300,l),
(138,300,l)
);
},
{
closed = 1;
nodes = (
(138,420,l),
(62,420,l),
(62,360,l),
(138,360,l)
);
},
{
closed = 1;
nodes = (
(138,480,l),
(62,480,l),
(62,420,l),
(138,420,l)
);
},
{
closed = 1;
nodes = (
(138,540,l),
(62,540,l),
(62,480,l),
(138,480,l)
);
},
{
closed = 1;
nodes = (
(138,600,l),
(62,600,l),
(62,540,l),
(138,540,l)
);
},
{
closed = 1;
nodes = (
(174,660,l),
(98,660,l),
(98,600,l),
(174,600,l)
);
},
{
closed = 1;
nodes = (
(198,720,l),
(122,720,l),
(122,660,l),
(198,660,l)
);
},
{
closed = 1;
nodes = (
(414,120,l),
(338,120,l),
(338,60,l),
(414,60,l)
);
},
{
closed = 1;
nodes = (
(438,180,l),
(362,180,l),
(362,120,l),
(438,120,l)
);
},
{
closed = 1;
nodes = (
(456,240,l),
(380,240,l),
(380,180,l),
(456,180,l)
);
},
{
closed = 1;
nodes = (
(456,300,l),
(380,300,l),
(380,240,l),
(456,240,l)
);
},
{
closed = 1;
nodes = (
(456,360,l),
(380,360,l),
(380,300,l),
(456,300,l)
);
},
{
closed = 1;
nodes = (
(456,420,l),
(380,420,l),
(380,360,l),
(456,360,l)
);
},
{
closed = 1;
nodes = (
(456,480,l),
(380,480,l),
(380,420,l),
(456,420,l)
);
},
{
closed = 1;
nodes = (
(456,540,l),
(380,540,l),
(380,480,l),
(456,480,l)
);
},
{
closed = 1;
nodes = (
(456,600,l),
(380,600,l),
(380,540,l),
(456,540,l)
);
},
{
closed = 1;
nodes = (
(456,660,l),
(380,660,l),
(380,600,l),
(456,600,l)
);
},
{
closed = 1;
nodes = (
(414,720,l),
(338,720,l),
(338,660,l),
(414,660,l)
);
},
{
closed = 1;
nodes = (
(378,780,l),
(158,780,l),
(158,720,l),
(378,720,l)
);
},
{
closed = 1;
nodes = (
(300,300,l),
(224,300,l),
(224,240,l),
(300,240,l)
);
},
{
closed = 1;
nodes = (
(329,240,l),
(253,240,l),
(253,180,l),
(329,180,l)
);
},
{
closed = 1;
nodes = (
(362,180,l),
(286,180,l),
(286,120,l),
(362,120,l)
);
},
{
closed = 1;
nodes = (
(454,60,l),
(378,60,l),
(378,0,l),
(454,0,l)
);
},
{
closed = 1;
nodes = (
(396,120,l),
(320,120,l),
(320,60,l),
(396,60,l)
);
},
{
closed = 1;
nodes = (
(269,360,l),
(193,360,l),
(193,300,l),
(269,300,l)
);
}
);
};
layerId = "6E00C01D-8562-4DD7-AEA9-E2E0AAE53370";
shapes = (
{
alignment = -1;
pos = (88,120);
ref = bar.2;
},
{
alignment = -1;
pos = (58,180);
ref = bar.2;
},
{
alignment = -1;
pos = (58,240);
ref = bar.2;
},
{
alignment = -1;
pos = (58,300);
ref = bar.2;
},
{
alignment = -1;
pos = (58,420);
ref = bar.2;
},
{
alignment = -1;
pos = (58,480);
ref = bar.2;
},
{
alignment = -1;
pos = (58,540);
ref = bar.2;
},
{
alignment = -1;
pos = (88,600);
ref = bar.2;
},
{
alignment = -1;
pos = (356,60);
ref = bar.2;
},
{
alignment = -1;
pos = (380,120);
ref = bar.2;
},
{
alignment = -1;
pos = (408,180);
ref = bar.2;
},
{
alignment = -1;
pos = (408,240);
ref = bar.2;
},
{
alignment = -1;
pos = (408,300);
ref = bar.2;
},
{
alignment = -1;
pos = (408,360);
ref = bar.2;
},
{
alignment = -1;
pos = (408,420);
ref = bar.2;
},
{
alignment = -1;
pos = (408,480);
ref = bar.2;
},
{
alignment = -1;
pos = (408,540);
ref = bar.2;
},
{
alignment = -1;
pos = (388,600);
ref = bar.2;
},
{
alignment = -1;
pos = (356,660);
ref = bar.2;
},
{
alignment = -1;
pos = (58,360);
ref = bar.2;
},
{
alignment = -1;
pos = (171,0);
ref = bar.7;
},
{
alignment = -1;
pos = (125,60);
ref = bar.7;
},
{
alignment = -1;
pos = (155,660);
ref = bar.7;
},
{
alignment = -1;
pos = (168,720);
ref = bar.7;
},
{
alignment = -1;
pos = (125,660);
ref = bar.7;
},
{
alignment = -1;
pos = (451,60);
ref = bar.2;
},
{
alignment = -1;
pos = (311,0);
ref = bar.7;
}
);
width = 670;
}
);
unicode = 113;
},
{
glyphname = s;
lastChange = "2025-02-27 05:07:32 +0000";
layers = (
{
background = {
shapes = (
{
closed = 1;
nodes = (
(185,0,o),
(198,13,o),
(198,31,cs),
(198,47,o),
(185,60,o),
(169,60,cs),
(151,60,o),
(138,47,o),
(138,31,cs),
(138,13,o),
(151,0,o),
(169,0,cs)
);
},
{
closed = 1;
nodes = (
(375,0,o),
(388,13,o),
(388,31,cs),
(388,47,o),
(375,60,o),
(359,60,cs),
(341,60,o),
(328,47,o),
(328,31,cs),
(328,13,o),
(341,0,o),
(359,0,cs)
);
},
{
closed = 1;
nodes = (
(169,0,l),
(359,0,l),
(359,60,l),
(169,60,l)
);
},
{
closed = 1;
nodes = (
(91,120,o),
(78,107,o),
(78,89,cs),
(78,73,o),
(91,60,o),
(109,60,cs),
(125,60,o),
(138,73,o),
(138,89,cs),
(138,107,o),
(125,120,o),
(109,120,cs)
);
},
{
closed = 1;
nodes = (
(151,120,o),
(138,107,o),
(138,89,cs),
(138,73,o),
(151,60,o),
(169,60,cs),
(185,60,o),
(198,73,o),
(198,89,cs),
(198,107,o),
(185,120,o),
(169,120,cs)
);
},
{
closed = 1;
nodes = (
(169,60,l),
(169,120,l),
(109,120,l),
(109,60,l)
);
},
{
closed = 1;
nodes = (
(61,180,o),
(48,167,o),
(48,149,cs),
(48,133,o),
(61,120,o),
(79,120,cs),
(95,120,o),
(108,133,o),
(108,149,cs),
(108,167,o),
(95,180,o),
(79,180,cs)
);
},
{
closed = 1;
nodes = (
(121,180,o),
(108,167,o),
(108,149,cs),
(108,133,o),
(121,120,o),
(139,120,cs),
(155,120,o),
(168,133,o),
(168,149,cs),
(168,167,o),
(155,180,o),
(139,180,cs)
);
},
{
closed = 1;
nodes = (
(139,120,l),
(139,180,l),
(79,180,l),
(79,120,l)
);
},
{
closed = 1;
nodes = (
(377,60,o),
(390,73,o),
(390,91,cs),
(390,107,o),
(377,120,o),
(361,120,cs),
(343,120,o),
(330,107,o),
(330,91,cs),
(330,73,o),
(343,60,o),
(361,60,cs)
);
},
{
closed = 1;
nodes = (
(437,60,o),
(450,73,o),
(450,91,cs),
(450,107,o),
(437,120,o),
(421,120,cs),
(403,120,o),
(390,107,o),
(390,91,cs),
(390,73,o),
(403,60,o),
(421,60,cs)
);
},
{
closed = 1;
nodes = (
(361,60,l),
(421,60,l),
(421,120,l),
(361,120,l)
);
},
{
closed = 1;
nodes = (
(407,120,o),
(420,133,o),
(420,151,cs),
(420,167,o),
(407,180,o),
(391,180,cs),
(373,180,o),
(360,167,o),
(360,151,cs),
(360,133,o),
(373,120,o),
(391,120,cs)
);
},
{
closed = 1;
nodes = (
(467,120,o),
(480,133,o),
(480,151,cs),
(480,167,o),
(467,180,o),
(451,180,cs),
(433,180,o),
(420,167,o),
(420,151,cs),
(420,133,o),
(433,120,o),
(451,120,cs)
);
},
{
closed = 1;
nodes = (
(391,120,l),
(451,120,l),
(451,180,l),
(391,180,l)
);
},
{
closed = 1;
nodes = (
(407,180,o),
(420,193,o),
(420,211,cs),
(420,227,o),
(407,240,o),
(391,240,cs),
(373,240,o),
(360,227,o),
(360,211,cs),
(360,193,o),
(373,180,o),
(391,180,cs)
);
},
{
closed = 1;
nodes = (
(467,180,o),
(480,193,o),
(480,211,cs),
(480,227,o),
(467,240,o),
(451,240,cs),
(433,240,o),
(420,227,o),
(420,211,cs),
(420,193,o),
(433,180,o),
(451,180,cs)
);
},
{
closed = 1;
nodes = (
(391,180,l),
(451,180,l),
(451,240,l),
(391,240,l)
);
},
{
closed = 1;
nodes = (
(407,240,o),
(420,253,o),
(420,271,cs),
(420,287,o),
(407,300,o),
(391,300,cs),
(373,300,o),
(360,287,o),
(360,271,cs),
(360,253,o),
(373,240,o),
(391,240,cs)
);
},
{
closed = 1;
nodes = (
(467,240,o),
(480,253,o),
(480,271,cs),
(480,287,o),
(467,300,o),
(451,300,cs),
(433,300,o),
(420,287,o),
(420,271,cs),
(420,253,o),
(433,240,o),
(451,240,cs)
);
},
{
closed = 1;
nodes = (
(391,240,l),
(451,240,l),
(451,300,l),
(391,300,l)
);
},
{
closed = 1;
nodes = (
(383,300,o),
(396,313,o),
(396,331,cs),
(396,347,o),
(383,360,o),
(367,360,cs),
(349,360,o),
(336,347,o),
(336,331,cs),
(336,313,o),
(349,300,o),
(367,300,cs)
);
},
{
closed = 1;
nodes = (
(443,300,o),
(456,313,o),
(456,331,cs),
(456,347,o),
(443,360,o),
(427,360,cs),
(409,360,o),
(396,347,o),
(396,331,cs),
(396,313,o),
(409,300,o),
(427,300,cs)
);
},
{
closed = 1;
nodes = (
(367,300,l),
(427,300,l),
(427,360,l),
(367,360,l)
);
},
{
closed = 1;
nodes = (
(143,360,o),
(156,373,o),
(156,391,cs),
(156,407,o),
(143,420,o),
(127,420,cs),
(109,420,o),
(96,407,o),
(96,391,cs),
(96,373,o),
(109,360,o),
(127,360,cs)
);
},
{
closed = 1;
nodes = (
(413,360,o),
(426,373,o),
(426,391,cs),
(426,407,o),
(413,420,o),
(397,420,cs),
(379,420,o),
(366,407,o),
(366,391,cs),
(366,373,o),
(379,360,o),
(397,360,cs)
);
},
{
closed = 1;
nodes = (
(127,360,l),
(397,360,l),
(397,420,l),
(127,420,l)
);
},
{
closed = 1;
nodes = (
(113,420,o),
(126,433,o),
(126,451,cs),
(126,467,o),
(113,480,o),
(97,480,cs),
(79,480,o),
(66,467,o),
(66,451,cs),
(66,433,o),
(79,420,o),
(97,420,cs)
);
},
{
closed = 1;
nodes = (
(173,420,o),
(186,433,o),
(186,451,cs),
(186,467,o),
(173,480,o),
(157,480,cs),
(139,480,o),
(126,467,o),
(126,451,cs),
(126,433,o),
(139,420,o),
(157,420,cs)
);
},
{
closed = 1;
nodes = (
(97,420,l),
(157,420,l),
(157,480,l),
(97,480,l)
);
},
{
closed = 1;
nodes = (
(89,480,o),
(102,493,o),
(102,511,cs),
(102,527,o),
(89,540,o),
(73,540,cs),
(55,540,o),
(42,527,o),
(42,511,cs),
(42,493,o),
(55,480,o),
(73,480,cs)
);
},
{
closed = 1;
nodes = (
(149,480,o),
(162,493,o),
(162,511,cs),
(162,527,o),
(149,540,o),
(133,540,cs),
(115,540,o),
(102,527,o),
(102,511,cs),
(102,493,o),
(115,480,o),
(133,480,cs)
);
},
{
closed = 1;
nodes = (
(73,480,l),
(133,480,l),
(133,540,l),
(73,540,l)
);
},
{
closed = 1;
nodes = (
(89,540,o),
(102,553,o),
(102,571,cs),
(102,587,o),
(89,600,o),
(73,600,cs),
(55,600,o),
(42,587,o),
(42,571,cs),
(42,553,o),
(55,540,o),
(73,540,cs)
);
},
{
closed = 1;
nodes = (
(149,540,o),
(162,553,o),
(162,571,cs),
(162,587,o),
(149,600,o),
(133,600,cs),
(115,600,o),
(102,587,o),
(102,571,cs),
(102,553,o),
(115,540,o),
(133,540,cs)
);
},
{
closed = 1;
nodes = (
(73,540,l),
(133,540,l),
(133,600,l),
(73,600,l)
);
},
{
closed = 1;
nodes = (
(89,600,o),
(102,613,o),
(102,631,cs),
(102,647,o),
(89,660,o),
(73,660,cs),
(55,660,o),
(42,647,o),
(42,631,cs),
(42,613,o),
(55,600,o),
(73,600,cs)
);
},
{
closed = 1;
nodes = (
(149,600,o),
(162,613,o),
(162,631,cs),
(162,647,o),
(149,660,o),
(133,660,cs),
(115,660,o),
(102,647,o),
(102,631,cs),
(102,613,o),
(115,600,o),
(133,600,cs)
);
},
{
closed = 1;
nodes = (
(73,600,l),
(133,600,l),
(133,660,l),
(73,660,l)
);
},
{
closed = 1;
nodes = (
(119,660,o),
(132,673,o),
(132,691,cs),
(132,707,o),
(119,720,o),
(103,720,cs),
(85,720,o),
(72,707,o),
(72,691,cs),
(72,673,o),
(85,660,o),
(103,660,cs)
);
},
{
closed = 1;
nodes = (
(179,660,o),
(192,673,o),
(192,691,cs),
(192,707,o),
(179,720,o),
(163,720,cs),
(145,720,o),
(132,707,o),
(132,691,cs),
(132,673,o),
(145,660,o),
(163,660,cs)
);
},
{
closed = 1;
nodes = (
(103,660,l),
(163,660,l),
(163,720,l),
(103,720,l)
);
},
{
closed = 1;
nodes = (
(185,720,o),
(198,733,o),
(198,751,cs),
(198,767,o),
(185,780,o),
(169,780,cs),
(151,780,o),
(138,767,o),
(138,751,cs),
(138,733,o),
(151,720,o),
(169,720,cs)
);
},
{
closed = 1;
nodes = (
(375,720,o),
(388,733,o),
(388,751,cs),
(388,767,o),
(375,780,o),
(359,780,cs),
(341,780,o),
(328,767,o),
(328,751,cs),
(328,733,o),
(341,720,o),
(359,720,cs)
);
},
{
closed = 1;
nodes = (
(169,720,l),
(359,720,l),
(359,780,l),
(169,780,l)
);
},
{
closed = 1;
nodes = (
(407,600,o),
(420,613,o),
(420,631,cs),
(420,647,o),
(407,660,o),
(391,660,cs),
(373,660,o),
(360,647,o),
(360,631,cs),
(360,613,o),
(373,600,o),
(391,600,cs)
);
},
{
closed = 1;
nodes = (
(467,600,o),
(480,613,o),
(480,631,cs),
(480,647,o),
(467,660,o),
(451,660,cs),
(433,660,o),
(420,647,o),
(420,631,cs),
(420,613,o),
(433,600,o),
(451,600,cs)
);
},
{
closed = 1;
nodes = (
(391,600,l),
(451,600,l),
(451,660,l),
(391,660,l)
);
},
{
closed = 1;
nodes = (
(375,660,o),
(388,673,o),
(388,691,cs),
(388,707,o),
(375,720,o),
(359,720,cs),
(341,720,o),
(328,707,o),
(328,691,cs),
(328,673,o),
(341,660,o),
(359,660,cs)
);
},
{
closed = 1;
nodes = (
(435,660,o),
(448,673,o),
(448,691,cs),
(448,707,o),
(435,720,o),
(419,720,cs),
(401,720,o),
(388,707,o),
(388,691,cs),
(388,673,o),
(401,660,o),
(419,660,cs)
);
},
{
closed = 1;
nodes = (
(359,660,l),
(419,660,l),
(419,720,l),
(359,720,l)
);
}
);
};
backgroundImage = {
crop = (6.125,0,146.563,175.001);
imagePath = "/var/folders/pw/s1l1bh2d0c559xgnrxlndqpm0000gq/T/TemporaryItems/NSIRD_screencaptureui_laL5gy/Screenshot 2025-02-25 at 8.36.11 PM.png";
locked = 1;
pos = (1,0);
scale = (4.0714,4.0714);
};
layerId = "6E00C01D-8562-4DD7-AEA9-E2E0AAE53370";
shapes = (
{
alignment = -1;
pos = (102,60);
ref = bar.5;
},
{
alignment = -1;
pos = (62,120);
ref = bar.2;
},
{
alignment = -1;
pos = (42,180);
ref = bar.2;
},
{
alignment = -1;
pos = (197,360);
ref = bar.2;
},
{
alignment = -1;
pos = (112,420);
ref = bar.2;
},
{
alignment = -1;
pos = (72,480);
ref = bar.2;
},
{
alignment = -1;
pos = (172,0);
ref = bar.5;
},
{
alignment = -1;
pos = (350,60);
ref = bar.2;
},
{
alignment = -1;
pos = (380,120);
ref = bar.2;
},
{
alignment = -1;
pos = (400,180);
ref = bar.2;
},
{
alignment = -1;
pos = (392,240);
ref = bar.2;
},
{
alignment = -1;
pos = (350,300);
ref = bar.2;
},
{
alignment = -1;
pos = (62,540);
ref = bar.2;
},
{
alignment = -1;
pos = (72,600);
ref = bar.2;
},
{
alignment = -1;
pos = (400,600);
ref = bar.2;
},
{
alignment = -1;
pos = (422,540);
ref = bar.2;
},
{
alignment = -1;
pos = (275,360);
ref = bar.2;
},
{
alignment = -1;
pos = (272,0);
ref = bar.5;
},
{
alignment = -1;
pos = (232,60);
ref = bar.5;
},
{
alignment = -1;
pos = (162,720);
ref = bar.5;
},
{
alignment = -1;
pos = (262,720);
ref = bar.5;
},
{
alignment = -1;
pos = (92,660);
ref = bar.5;
},
{
alignment = -1;
pos = (370,660);
ref = bar.2;
},
{
alignment = -1;
pos = (222,660);
ref = bar.5;
},
{
alignment = -1;
pos = (192,420);
ref = bar.2;
},
{
alignment = -1;
pos = (280,300);
ref = bar.2;
},
{
alignment = -1;
pos = (102,480);
ref = bar.2;
},
{
alignment = -1;
pos = (372,240);
ref = bar.2;
}
);
width = 670;
},
{
associatedMasterId = "6E00C01D-8562-4DD7-AEA9-E2E0AAE53370";
backgroundImage = {
imagePath = "../../../../Desktop/Screenshot 2024-02-19 at 11.14.31 AM.png";
locked = 1;
pos = (-28,0);
scale = (4.5714,4.5714);
};
layerId = "7D847128-BE9E-4A5C-ABEB-894C4BE8E288";
name = "Feb 19, 24 at 12:55";
shapes = (
{
alignment = -1;
pos = (136,0);
ref = bar.5;
},
{
alignment = -1;
pos = (76,60);
ref = bar.2;
},
{
alignment = -1;
pos = (46,120);
ref = bar.2;
},
{
alignment = -1;
pos = (328,60);
ref = bar.2;
},
{
alignment = -1;
pos = (358,120);
ref = bar.2;
},
{
alignment = -1;
pos = (358,180);
ref = bar.2;
},
{
alignment = -1;
pos = (358,240);
ref = bar.2;
},
{
alignment = -1;
pos = (328,300);
ref = bar.2;
},
{
alignment = -1;
pos = (136,360);
ref = bar.5;
},
{
alignment = -1;
pos = (88,420);
ref = bar.2;
},
{
alignment = -1;
pos = (40,480);
ref = bar.2;
},
{
alignment = -1;
pos = (40,540);
ref = bar.2;
},
{
alignment = -1;
pos = (40,600);
ref = bar.2;
},
{
alignment = -1;
pos = (70,660);
ref = bar.2;
},
{
alignment = -1;
pos = (136,720);
ref = bar.5;
},
{
alignment = -1;
pos = (358,600);
ref = bar.2;
},
{
alignment = -1;
pos = (328,660);
ref = bar.2;
}
);
width = 518;
}
);
unicode = 115;
},
{
glyphname = w;
lastChange = "2025-02-27 20:20:58 +0000";
layers = (
{
background = {
shapes = (
{
closed = 1;
nodes = (
(178,60,l),
(102,60,l),
(102,0,l),
(178,0,l)
);
},
{
closed = 1;
nodes = (
(202,120,l),
(82,120,l),
(82,60,l),
(202,60,l)
);
},
{
closed = 1;
nodes = (
(138,180,l),
(62,180,l),
(62,120,l),
(138,120,l)
);
},
{
closed = 1;
nodes = (
(138,240,l),
(62,240,l),
(62,180,l),
(138,180,l)
);
},
{
closed = 1;
nodes = (
(138,300,l),
(62,300,l),
(62,240,l),
(138,240,l)
);
},
{
closed = 1;
nodes = (
(138,360,l),
(62,360,l),
(62,300,l),
(138,300,l)
);
},
{
closed = 1;
nodes = (
(138,480,l),
(62,480,l),
(62,420,l),
(138,420,l)
);
},
{
closed = 1;
nodes = (
(138,540,l),
(62,540,l),
(62,480,l),
(138,480,l)
);
},
{
closed = 1;
nodes = (
(138,600,l),
(62,600,l),
(62,540,l),
(138,540,l)
);
},
{
closed = 1;
nodes = (
(138,660,l),
(62,660,l),
(62,600,l),
(138,600,l)
);
},
{
closed = 1;
nodes = (
(138,720,l),
(62,720,l),
(62,660,l),
(138,660,l)
);
},
{
closed = 1;
nodes = (
(138,780,l),
(62,780,l),
(62,720,l),
(138,720,l)
);
},
{
closed = 1;
nodes = (
(416,60,l),
(340,60,l),
(340,0,l),
(416,0,l)
);
},
{
closed = 1;
nodes = (
(456,120,l),
(317,120,l),
(317,60,l),
(456,60,l)
);
},
{
closed = 1;
nodes = (
(456,180,l),
(129,180,l),
(129,120,l),
(456,120,l)
);
},
{
closed = 1;
nodes = (
(456,240,l),
(380,240,l),
(380,180,l),
(456,180,l)
);
},
{
closed = 1;
nodes = (
(456,300,l),
(380,300,l),
(380,240,l),
(456,240,l)
);
},
{
closed = 1;
nodes = (
(456,360,l),
(380,360,l),
(380,300,l),
(456,300,l)
);
},
{
closed = 1;
nodes = (
(456,480,l),
(380,480,l),
(380,420,l),
(456,420,l)
);
},
{
closed = 1;
nodes = (
(456,540,l),
(380,540,l),
(380,480,l),
(456,480,l)
);
},
{
closed = 1;
nodes = (
(456,600,l),
(380,600,l),
(380,540,l),
(456,540,l)
);
},
{
closed = 1;
nodes = (
(456,660,l),
(380,660,l),
(380,600,l),
(456,600,l)
);
},
{
closed = 1;
nodes = (
(456,720,l),
(380,720,l),
(380,660,l),
(456,660,l)
);
},
{
closed = 1;
nodes = (
(456,780,l),
(380,780,l),
(380,720,l),
(456,720,l)
);
},
{
closed = 1;
nodes = (
(138,420,l),
(62,420,l),
(62,360,l),
(138,360,l)
);
},
{
closed = 1;
nodes = (
(456,420,l),
(380,420,l),
(380,360,l),
(456,360,l)
);
},
{
closed = 1;
nodes = (
(408,240,l),
(97,240,l),
(97,180,l),
(408,180,l)
);
},
{
closed = 1;
nodes = (
(331,300,l),
(174,300,l),
(174,240,l),
(331,240,l)
);
},
{
closed = 1;
nodes = (
(294,360,l),
(212,360,l),
(212,300,l),
(294,300,l)
);
}
);
};
layerId = "6E00C01D-8562-4DD7-AEA9-E2E0AAE53370";
shapes = (
{
alignment = -1;
pos = (352,180);
ref = bar.2;
},
{
alignment = -1;
pos = (408,420);
ref = bar.2;
},
{
alignment = -1;
pos = (423,480);
ref = bar.2;
},
{
alignment = -1;
pos = (438,540);
ref = bar.2;
},
{
alignment = -1;
pos = (453,600);
ref = bar.2;
},
{
alignment = -1;
pos = (468,660);
ref = bar.2;
},
{
alignment = -1;
pos = (483,720);
ref = bar.2;
},
{
alignment = -1;
pos = (393,360);
ref = bar.2;
},
{
alignment = -1;
pos = (330,60);
ref = bar.3;
},
{
alignment = -1;
pos = (347,0);
ref = bar.3;
},
{
alignment = -1;
pos = (378,300);
ref = bar.2;
},
{
alignment = -1;
pos = (363,240);
ref = bar.2;
},
{
alignment = -1;
pos = (337,120);
ref = bar.2;
},
{
alignment = -1;
pos = (114,180);
ref = bar.2;
},
{
alignment = -1;
pos = (58,420);
ref = bar.2;
},
{
alignment = -1;
pos = (43,480);
ref = bar.2;
},
{
alignment = -1;
pos = (28,540);
ref = bar.2;
},
{
alignment = -1;
pos = (13,600);
ref = bar.2;
},
{
alignment = -1;
pos = (-2,660);
ref = bar.2;
},
{
alignment = -1;
pos = (-17,720);
ref = bar.2;
},
{
alignment = -1;
pos = (73,360);
ref = bar.2;
},
{
alignment = -1;
pos = (141,60);
ref = bar.3;
},
{
alignment = -1;
pos = (155,0);
ref = bar.3;
},
{
alignment = -1;
pos = (88,300);
ref = bar.2;
},
{
alignment = -1;
pos = (103,240);
ref = bar.2;
},
{
alignment = -1;
pos = (129,120);
ref = bar.2;
},
{
alignment = -1;
pos = (239,120);
ref = bar.2;
},
{
alignment = -1;
pos = (177,180);
ref = bar.2;
scale = (1.6595,1);
},
{
alignment = -1;
pos = (180,240);
ref = bar.2;
scale = (1.6171,1);
},
{
alignment = -1;
pos = (281,300);
ref = bar.2;
},
{
alignment = -1;
pos = (161,60);
ref = bar.3;
},
{
alignment = -1;
pos = (360,60);
ref = bar.3;
},
{
alignment = -1;
pos = (191,300);
ref = bar.2;
}
);
width = 670;
}
);
unicode = 119;
},
{
glyphname = x;
lastChange = "2025-02-26 01:31:06 +0000";
layers = (
{
background = {
shapes = (
{
closed = 1;
nodes = (
(206,420,o),
(218,433,o),
(218,451,cs),
(218,467,o),
(206,480,o),
(192,480,cs),
(175,480,o),
(164,467,o),
(164,451,cs),
(164,433,o),
(175,420,o),
(192,420,cs)
);
},
{
closed = 1;
nodes = (
(350,420,o),
(362,433,o),
(362,451,cs),
(362,467,o),
(350,480,o),
(336,480,cs),
(319,480,o),
(308,467,o),
(308,451,cs),
(308,433,o),
(319,420,o),
(336,420,cs)
);
},
{
closed = 1;
nodes = (
(192,420,l),
(336,420,l),
(336,480,l),
(192,480,l)
);
},
{
closed = 1;
nodes = (
(89,720,o),
(102,733,o),
(102,751,cs),
(102,767,o),
(89,780,o),
(73,780,cs),
(55,780,o),
(42,767,o),
(42,751,cs),
(42,733,o),
(55,720,o),
(73,720,cs)
);
},
{
closed = 1;
nodes = (
(149,720,o),
(162,733,o),
(162,751,cs),
(162,767,o),
(149,780,o),
(133,780,cs),
(115,780,o),
(102,767,o),
(102,751,cs),
(102,733,o),
(115,720,o),
(133,720,cs)
);
},
{
closed = 1;
nodes = (
(73,720,l),
(133,720,l),
(133,780,l),
(73,780,l)
);
},
{
closed = 1;
nodes = (
(407,720,o),
(420,733,o),
(420,751,cs),
(420,767,o),
(407,780,o),
(391,780,cs),
(373,780,o),
(360,767,o),
(360,751,cs),
(360,733,o),
(373,720,o),
(391,720,cs)
);
},
{
closed = 1;
nodes = (
(467,720,o),
(480,733,o),
(480,751,cs),
(480,767,o),
(467,780,o),
(451,780,cs),
(433,780,o),
(420,767,o),
(420,751,cs),
(420,733,o),
(433,720,o),
(451,720,cs)
);
},
{
closed = 1;
nodes = (
(391,720,l),
(451,720,l),
(451,780,l),
(391,780,l)
);
},
{
closed = 1;
nodes = (
(89,660,o),
(102,673,o),
(102,691,cs),
(102,707,o),
(89,720,o),
(73,720,cs),
(55,720,o),
(42,707,o),
(42,691,cs),
(42,673,o),
(55,660,o),
(73,660,cs)
);
},
{
closed = 1;
nodes = (
(149,660,o),
(162,673,o),
(162,691,cs),
(162,707,o),
(149,720,o),
(133,720,cs),
(115,720,o),
(102,707,o),
(102,691,cs),
(102,673,o),
(115,660,o),
(133,660,cs)
);
},
{
closed = 1;
nodes = (
(73,660,l),
(133,660,l),
(133,720,l),
(73,720,l)
);
},
{
closed = 1;
nodes = (
(407,660,o),
(420,673,o),
(420,691,cs),
(420,707,o),
(407,720,o),
(391,720,cs),
(373,720,o),
(360,707,o),
(360,691,cs),
(360,673,o),
(373,660,o),
(391,660,cs)
);
},
{
closed = 1;
nodes = (
(467,660,o),
(480,673,o),
(480,691,cs),
(480,707,o),
(467,720,o),
(451,720,cs),
(433,720,o),
(420,707,o),
(420,691,cs),
(420,673,o),
(433,660,o),
(451,660,cs)
);
},
{
closed = 1;
nodes = (
(391,660,l),
(451,660,l),
(451,720,l),
(391,720,l)
);
},
{
closed = 1;
nodes = (
(119,600,o),
(132,613,o),
(132,631,cs),
(132,647,o),
(119,660,o),
(103,660,cs),
(85,660,o),
(72,647,o),
(72,631,cs),
(72,613,o),
(85,600,o),
(103,600,cs)
);
},
{
closed = 1;
nodes = (
(179,600,o),
(192,613,o),
(192,631,cs),
(192,647,o),
(179,660,o),
(163,660,cs),
(145,660,o),
(132,647,o),
(132,631,cs),
(132,613,o),
(145,600,o),
(163,600,cs)
);
},
{
closed = 1;
nodes = (
(103,600,l),
(163,600,l),
(163,660,l),
(103,660,l)
);
},
{
closed = 1;
nodes = (
(377,600,o),
(390,613,o),
(390,631,cs),
(390,647,o),
(377,660,o),
(361,660,cs),
(343,660,o),
(330,647,o),
(330,631,cs),
(330,613,o),
(343,600,o),
(361,600,cs)
);
},
{
closed = 1;
nodes = (
(437,600,o),
(450,613,o),
(450,631,cs),
(450,647,o),
(437,660,o),
(421,660,cs),
(403,660,o),
(390,647,o),
(390,631,cs),
(390,613,o),
(403,600,o),
(421,600,cs)
);
},
{
closed = 1;
nodes = (
(361,600,l),
(421,600,l),
(421,660,l),
(361,660,l)
);
},
{
closed = 1;
nodes = (
(149,540,o),
(162,553,o),
(162,571,cs),
(162,587,o),
(149,600,o),
(133,600,cs),
(115,600,o),
(102,587,o),
(102,571,cs),
(102,553,o),
(115,540,o),
(133,540,cs)
);
},
{
closed = 1;
nodes = (
(209,540,o),
(222,553,o),
(222,571,cs),
(222,587,o),
(209,600,o),
(193,600,cs),
(175,600,o),
(162,587,o),
(162,571,cs),
(162,553,o),
(175,540,o),
(193,540,cs)
);
},
{
closed = 1;
nodes = (
(133,540,l),
(193,540,l),
(193,600,l),
(133,600,l)
);
},
{
closed = 1;
nodes = (
(347,540,o),
(360,553,o),
(360,571,cs),
(360,587,o),
(347,600,o),
(331,600,cs),
(313,600,o),
(300,587,o),
(300,571,cs),
(300,553,o),
(313,540,o),
(331,540,cs)
);
},
{
closed = 1;
nodes = (
(407,540,o),
(420,553,o),
(420,571,cs),
(420,587,o),
(407,600,o),
(391,600,cs),
(373,600,o),
(360,587,o),
(360,571,cs),
(360,553,o),
(373,540,o),
(391,540,cs)
);
},
{
closed = 1;
nodes = (
(331,540,l),
(391,540,l),
(391,600,l),
(331,600,l)
);
},
{
closed = 1;
nodes = (
(179,480,o),
(192,493,o),
(192,511,cs),
(192,527,o),
(179,540,o),
(163,540,cs),
(145,540,o),
(132,527,o),
(132,511,cs),
(132,493,o),
(145,480,o),
(163,480,cs)
);
},
{
closed = 1;
nodes = (
(239,480,o),
(252,493,o),
(252,511,cs),
(252,527,o),
(239,540,o),
(223,540,cs),
(205,540,o),
(192,527,o),
(192,511,cs),
(192,493,o),
(205,480,o),
(223,480,cs)
);
},
{
closed = 1;
nodes = (
(163,480,l),
(223,480,l),
(223,540,l),
(163,540,l)
);
},
{
closed = 1;
nodes = (
(317,480,o),
(330,493,o),
(330,511,cs),
(330,527,o),
(317,540,o),
(301,540,cs),
(283,540,o),
(270,527,o),
(270,511,cs),
(270,493,o),
(283,480,o),
(301,480,cs)
);
},
{
closed = 1;
nodes = (
(377,480,o),
(390,493,o),
(390,511,cs),
(390,527,o),
(377,540,o),
(361,540,cs),
(343,540,o),
(330,527,o),
(330,511,cs),
(330,493,o),
(343,480,o),
(361,480,cs)
);
},
{
closed = 1;
nodes = (
(301,480,l),
(361,480,l),
(361,540,l),
(301,540,l)
);
},
{
closed = 1;
nodes = (
(246,360,o),
(259,373,o),
(259,391,cs),
(259,407,o),
(246,420,o),
(230,420,cs),
(212,420,o),
(199,407,o),
(199,391,cs),
(199,373,o),
(212,360,o),
(230,360,cs)
);
},
{
closed = 1;
nodes = (
(306,360,o),
(319,373,o),
(319,391,cs),
(319,407,o),
(306,420,o),
(290,420,cs),
(272,420,o),
(259,407,o),
(259,391,cs),
(259,373,o),
(272,360,o),
(290,360,cs)
);
},
{
closed = 1;
nodes = (
(230,360,l),
(290,360,l),
(290,420,l),
(230,420,l)
);
},
{
closed = 1;
nodes = (
(206,300,o),
(218,313,o),
(218,331,cs),
(218,347,o),
(206,360,o),
(192,360,cs),
(175,360,o),
(164,347,o),
(164,331,cs),
(164,313,o),
(175,300,o),
(192,300,cs)
);
},
{
closed = 1;
nodes = (
(350,300,o),
(362,313,o),
(362,331,cs),
(362,347,o),
(350,360,o),
(336,360,cs),
(319,360,o),
(308,347,o),
(308,331,cs),
(308,313,o),
(319,300,o),
(336,300,cs)
);
},
{
closed = 1;
nodes = (
(192,300,l),
(336,300,l),
(336,360,l),
(192,360,l)
);
},
{
closed = 1;
nodes = (
(179,240,o),
(192,253,o),
(192,271,cs),
(192,287,o),
(179,300,o),
(163,300,cs),
(145,300,o),
(132,287,o),
(132,271,cs),
(132,253,o),
(145,240,o),
(163,240,cs)
);
},
{
closed = 1;
nodes = (
(239,240,o),
(252,253,o),
(252,271,cs),
(252,287,o),
(239,300,o),
(223,300,cs),
(205,300,o),
(192,287,o),
(192,271,cs),
(192,253,o),
(205,240,o),
(223,240,cs)
);
},
{
closed = 1;
nodes = (
(163,240,l),
(223,240,l),
(223,300,l),
(163,300,l)
);
},
{
closed = 1;
nodes = (
(317,240,o),
(330,253,o),
(330,271,cs),
(330,287,o),
(317,300,o),
(301,300,cs),
(283,300,o),
(270,287,o),
(270,271,cs),
(270,253,o),
(283,240,o),
(301,240,cs)
);
},
{
closed = 1;
nodes = (
(377,240,o),
(390,253,o),
(390,271,cs),
(390,287,o),
(377,300,o),
(361,300,cs),
(343,300,o),
(330,287,o),
(330,271,cs),
(330,253,o),
(343,240,o),
(361,240,cs)
);
},
{
closed = 1;
nodes = (
(301,240,l),
(361,240,l),
(361,300,l),
(301,300,l)
);
},
{
closed = 1;
nodes = (
(149,180,o),
(162,193,o),
(162,211,cs),
(162,227,o),
(149,240,o),
(133,240,cs),
(115,240,o),
(102,227,o),
(102,211,cs),
(102,193,o),
(115,180,o),
(133,180,cs)
);
},
{
closed = 1;
nodes = (
(209,180,o),
(222,193,o),
(222,211,cs),
(222,227,o),
(209,240,o),
(193,240,cs),
(175,240,o),
(162,227,o),
(162,211,cs),
(162,193,o),
(175,180,o),
(193,180,cs)
);
},
{
closed = 1;
nodes = (
(133,180,l),
(193,180,l),
(193,240,l),
(133,240,l)
);
},
{
closed = 1;
nodes = (
(347,180,o),
(360,193,o),
(360,211,cs),
(360,227,o),
(347,240,o),
(331,240,cs),
(313,240,o),
(300,227,o),
(300,211,cs),
(300,193,o),
(313,180,o),
(331,180,cs)
);
},
{
closed = 1;
nodes = (
(407,180,o),
(420,193,o),
(420,211,cs),
(420,227,o),
(407,240,o),
(391,240,cs),
(373,240,o),
(360,227,o),
(360,211,cs),
(360,193,o),
(373,180,o),
(391,180,cs)
);
},
{
closed = 1;
nodes = (
(331,180,l),
(391,180,l),
(391,240,l),
(331,240,l)
);
},
{
closed = 1;
nodes = (
(119,120,o),
(132,133,o),
(132,151,cs),
(132,167,o),
(119,180,o),
(103,180,cs),
(85,180,o),
(72,167,o),
(72,151,cs),
(72,133,o),
(85,120,o),
(103,120,cs)
);
},
{
closed = 1;
nodes = (
(179,120,o),
(192,133,o),
(192,151,cs),
(192,167,o),
(179,180,o),
(163,180,cs),
(145,180,o),
(132,167,o),
(132,151,cs),
(132,133,o),
(145,120,o),
(163,120,cs)
);
},
{
closed = 1;
nodes = (
(103,120,l),
(163,120,l),
(163,180,l),
(103,180,l)
);
},
{
closed = 1;
nodes = (
(377,120,o),
(390,133,o),
(390,151,cs),
(390,167,o),
(377,180,o),
(361,180,cs),
(343,180,o),
(330,167,o),
(330,151,cs),
(330,133,o),
(343,120,o),
(361,120,cs)
);
},
{
closed = 1;
nodes = (
(437,120,o),
(450,133,o),
(450,151,cs),
(450,167,o),
(437,180,o),
(421,180,cs),
(403,180,o),
(390,167,o),
(390,151,cs),
(390,133,o),
(403,120,o),
(421,120,cs)
);
},
{
closed = 1;
nodes = (
(361,120,l),
(421,120,l),
(421,180,l),
(361,180,l)
);
},
{
closed = 1;
nodes = (
(89,60,o),
(102,73,o),
(102,91,cs),
(102,107,o),
(89,120,o),
(73,120,cs),
(55,120,o),
(42,107,o),
(42,91,cs),
(42,73,o),
(55,60,o),
(73,60,cs)
);
},
{
closed = 1;
nodes = (
(149,60,o),
(162,73,o),
(162,91,cs),
(162,107,o),
(149,120,o),
(133,120,cs),
(115,120,o),
(102,107,o),
(102,91,cs),
(102,73,o),
(115,60,o),
(133,60,cs)
);
},
{
closed = 1;
nodes = (
(73,60,l),
(133,60,l),
(133,120,l),
(73,120,l)
);
},
{
closed = 1;
nodes = (
(407,60,o),
(420,73,o),
(420,91,cs),
(420,107,o),
(407,120,o),
(391,120,cs),
(373,120,o),
(360,107,o),
(360,91,cs),
(360,73,o),
(373,60,o),
(391,60,cs)
);
},
{
closed = 1;
nodes = (
(467,60,o),
(480,73,o),
(480,91,cs),
(480,107,o),
(467,120,o),
(451,120,cs),
(433,120,o),
(420,107,o),
(420,91,cs),
(420,73,o),
(433,60,o),
(451,60,cs)
);
},
{
closed = 1;
nodes = (
(391,60,l),
(451,60,l),
(451,120,l),
(391,120,l)
);
},
{
closed = 1;
nodes = (
(89,0,o),
(102,13,o),
(102,31,cs),
(102,47,o),
(89,60,o),
(73,60,cs),
(55,60,o),
(42,47,o),
(42,31,cs),
(42,13,o),
(55,0,o),
(73,0,cs)
);
},
{
closed = 1;
nodes = (
(149,0,o),
(162,13,o),
(162,31,cs),
(162,47,o),
(149,60,o),
(133,60,cs),
(115,60,o),
(102,47,o),
(102,31,cs),
(102,13,o),
(115,0,o),
(133,0,cs)
);
},
{
closed = 1;
nodes = (
(73,0,l),
(133,0,l),
(133,60,l),
(73,60,l)
);
},
{
closed = 1;
nodes = (
(407,0,o),
(420,13,o),
(420,31,cs),
(420,47,o),
(407,60,o),
(391,60,cs),
(373,60,o),
(360,47,o),
(360,31,cs),
(360,13,o),
(373,0,o),
(391,0,cs)
);
},
{
closed = 1;
nodes = (
(467,0,o),
(480,13,o),
(480,31,cs),
(480,47,o),
(467,60,o),
(451,60,cs),
(433,60,o),
(420,47,o),
(420,31,cs),
(420,13,o),
(433,0,o),
(451,0,cs)
);
},
{
closed = 1;
nodes = (
(391,0,l),
(451,0,l),
(451,60,l),
(391,60,l)
);
}
);
};
backgroundImage = {
imagePath = "../../../../Desktop/Screenshot 2024-04-17 at 12.09.37 PM.png";
locked = 1;
pos = (20,-10);
scale = (1.593,1.593);
};
layerId = "6E00C01D-8562-4DD7-AEA9-E2E0AAE53370";
shapes = (
{
alignment = -1;
pos = (181,420);
ref = bar.3;
},
{
alignment = -1;
pos = (29,720);
ref = bar.2;
},
{
alignment = -1;
pos = (437,720);
ref = bar.2;
},
{
alignment = -1;
pos = (59,660);
ref = bar.2;
},
{
alignment = -1;
pos = (407,660);
ref = bar.2;
},
{
alignment = -1;
pos = (89,600);
ref = bar.2;
},
{
alignment = -1;
pos = (377,600);
ref = bar.2;
},
{
alignment = -1;
pos = (119,540);
ref = bar.2;
},
{
alignment = -1;
pos = (347,540);
ref = bar.2;
},
{
alignment = -1;
pos = (149,480);
ref = bar.2;
},
{
alignment = -1;
pos = (317,480);
ref = bar.2;
},
{
alignment = -1;
pos = (218,360);
ref = bar.2;
},
{
alignment = -1;
pos = (181,300);
ref = bar.3;
},
{
alignment = -1;
pos = (149,240);
ref = bar.2;
},
{
alignment = -1;
pos = (317,240);
ref = bar.2;
},
{
alignment = -1;
pos = (119,180);
ref = bar.2;
},
{
alignment = -1;
pos = (347,180);
ref = bar.2;
},
{
alignment = -1;
pos = (89,120);
ref = bar.2;
},
{
alignment = -1;
pos = (377,120);
ref = bar.2;
},
{
alignment = -1;
pos = (59,60);
ref = bar.2;
},
{
alignment = -1;
pos = (407,60);
ref = bar.2;
},
{
alignment = -1;
pos = (29,0);
ref = bar.2;
},
{
alignment = -1;
pos = (437,0);
ref = bar.2;
},
{
alignment = -1;
pos = (317,420);
ref = bar.3;
},
{
alignment = -1;
pos = (322,300);
ref = bar.3;
},
{
alignment = -1;
pos = (229,480);
ref = bar.2;
},
{
alignment = -1;
pos = (239,240);
ref = bar.2;
},
{
alignment = -1;
pos = (251,300);
ref = bar.3;
},
{
alignment = -1;
pos = (251,420);
ref = bar.3;
},
{
alignment = -1;
pos = (241,360);
ref = bar.2;
}
);
width = 670;
}
);
unicode = 120;
},
{
glyphname = comma;
lastChange = "2025-02-26 03:59:36 +0000";
layers = (
{
layerId = "6E00C01D-8562-4DD7-AEA9-E2E0AAE53370";
shapes = (
{
alignment = -1;
pos = (232,120);
ref = bar.2;
},
{
alignment = -1;
pos = (232,240);
ref = bar.2;
},
{
alignment = -1;
pos = (232,300);
ref = bar.2;
},
{
closed = 1;
nodes = (
(361,60,o),
(374,73,o),
(374,91,cs),
(374,107,o),
(361,120,o),
(345,120,cs),
(327,120,o),
(314,107,o),
(314,91,cs),
(314,73,o),
(327,60,o),
(345,60,cs)
);
},
{
closed = 1;
nodes = (
(421,60,o),
(434,73,o),
(434,91,cs),
(434,107,o),
(421,120,o),
(405,120,cs),
(387,120,o),
(374,107,o),
(374,91,cs),
(374,73,o),
(387,60,o),
(405,60,cs)
);
},
{
closed = 1;
nodes = (
(345,60,l),
(405,60,l),
(405,120,l),
(345,120,l)
);
},
{
alignment = -1;
pos = (232,180);
ref = bar.2;
},
{
alignment = -1;
pos = (192,0);
ref = bar.2;
}
);
width = 670;
}
);
unicode = 44;
},
{
glyphname = semicolon;
lastChange = "2025-02-26 04:00:01 +0000";
layers = (
{
layerId = "6E00C01D-8562-4DD7-AEA9-E2E0AAE53370";
shapes = (
{
alignment = -1;
pos = (232,120);
ref = bar.2;
},
{
alignment = -1;
pos = (232,240);
ref = bar.2;
},
{
alignment = -1;
pos = (232,300);
ref = bar.2;
},
{
closed = 1;
nodes = (
(361,60,o),
(374,73,o),
(374,91,cs),
(374,107,o),
(361,120,o),
(345,120,cs),
(327,120,o),
(314,107,o),
(314,91,cs),
(314,73,o),
(327,60,o),
(345,60,cs)
);
},
{
closed = 1;
nodes = (
(421,60,o),
(434,73,o),
(434,91,cs),
(434,107,o),
(421,120,o),
(405,120,cs),
(387,120,o),
(374,107,o),
(374,91,cs),
(374,73,o),
(387,60,o),
(405,60,cs)
);
},
{
closed = 1;
nodes = (
(345,60,l),
(405,60,l),
(405,120,l),
(345,120,l)
);
},
{
alignment = -1;
pos = (232,180);
ref = bar.2;
},
{
alignment = -1;
pos = (192,0);
ref = bar.2;
},
{
alignment = -1;
pos = (233,480);
ref = bar.2;
},
{
alignment = -1;
pos = (233,600);
ref = bar.2;
},
{
alignment = -1;
pos = (233,540);
ref = bar.3;
},
{
alignment = -1;
pos = (273,540);
ref = bar.3;
},
{
alignment = -1;
pos = (233,660);
ref = bar.2;
}
);
width = 670;
}
);
unicode = 59;
},
{
glyphname = quoteright;
lastChange = "2025-02-27 05:03:06 +0000";
layers = (
{
backgroundImage = {
imagePath = "../../../../Desktop/Screenshot 2024-04-17 at 12.15.42 PM.png";
locked = 1;
pos = (-454,-10);
scale = (4.5416,4.5416);
};
layerId = "6E00C01D-8562-4DD7-AEA9-E2E0AAE53370";
shapes = (
{
alignment = -1;
pos = (232,720);
ref = bar.2;
},
{
alignment = -1;
pos = (232,840);
ref = bar.2;
},
{
alignment = -1;
pos = (232,900);
ref = bar.2;
},
{
closed = 1;
nodes = (
(361,660,o),
(374,673,o),
(374,691,cs),
(374,707,o),
(361,720,o),
(345,720,cs),
(327,720,o),
(314,707,o),
(314,691,cs),
(314,673,o),
(327,660,o),
(345,660,cs)
);
},
{
closed = 1;
nodes = (
(421,660,o),
(434,673,o),
(434,691,cs),
(434,707,o),
(421,720,o),
(405,720,cs),
(387,720,o),
(374,707,o),
(374,691,cs),
(374,673,o),
(387,660,o),
(405,660,cs)
);
},
{
closed = 1;
nodes = (
(345,660,l),
(405,660,l),
(405,720,l),
(345,720,l)
);
},
{
alignment = -1;
pos = (232,780);
ref = bar.2;
},
{
alignment = -1;
pos = (192,600);
ref = bar.2;
}
);
width = 670;
}
);
unicode = 8217;
},
{
export = 0;
glyphname = bar.2;
lastChange = "2025-02-27 05:06:31 +0000";
layers = (
{
background = {
shapes = (
{
closed = 1;
nodes = (
(49,0,o),
(62,13,o),
(62,31,cs),
(62,47,o),
(49,60,o),
(33,60,cs),
(15,60,o),
(2,47,o),
(2,31,cs),
(2,13,o),
(15,0,o),
(33,0,cs)
);
},
{
closed = 1;
nodes = (
(89,0,o),
(102,13,o),
(102,31,cs),
(102,47,o),
(89,60,o),
(73,60,cs),
(55,60,o),
(42,47,o),
(42,31,cs),
(42,13,o),
(55,0,o),
(73,0,cs)
);
},
{
closed = 1;
nodes = (
(33,0,l),
(73,0,l),
(73,60,l),
(33,60,l)
);
},
{
closed = 1;
nodes = (
(149,0,o),
(162,13,o),
(162,31,cs),
(162,47,o),
(149,60,o),
(133,60,cs),
(115,60,o),
(102,47,o),
(102,31,cs),
(102,13,o),
(115,0,o),
(133,0,cs)
);
},
{
closed = 1;
nodes = (
(189,0,o),
(202,13,o),
(202,31,cs),
(202,47,o),
(189,60,o),
(173,60,cs),
(155,60,o),
(142,47,o),
(142,31,cs),
(142,13,o),
(155,0,o),
(173,0,cs)
);
},
{
closed = 1;
nodes = (
(133,0,l),
(173,0,l),
(173,60,l),
(133,60,l)
);
}
);
};
layerId = "6E00C01D-8562-4DD7-AEA9-E2E0AAE53370";
shapes = (
{
closed = 1;
nodes = (
(59,0,o),
(72,13,o),
(72,31,cs),
(72,47,o),
(59,60,o),
(43,60,cs),
(25,60,o),
(12,47,o),
(12,31,cs),
(12,13,o),
(25,0,o),
(43,0,cs)
);
},
{
closed = 1;
nodes = (
(179,0,o),
(192,13,o),
(192,31,cs),
(192,47,o),
(179,60,o),
(163,60,cs),
(145,60,o),
(132,47,o),
(132,31,cs),
(132,13,o),
(145,0,o),
(163,0,cs)
);
},
{
closed = 1;
nodes = (
(43,0,l),
(163,0,l),
(163,60,l),
(43,60,l)
);
}
);
width = 670;
}
);
},
{
export = 0;
glyphname = bar.3;
lastChange = "2025-02-27 05:06:31 +0000";
layers = (
{
background = {
shapes = (
{
closed = 1;
nodes = (
(158,60,l),
(22,60,l),
(22,30,l),
(158,30,l)
);
},
{
closed = 1;
nodes = (
(188,30,l),
(52,30,l),
(52,0,l),
(188,0,l)
);
}
);
};
layerId = "6E00C01D-8562-4DD7-AEA9-E2E0AAE53370";
shapes = (
{
closed = 1;
nodes = (
(59,0,o),
(72,13,o),
(72,31,cs),
(72,47,o),
(59,60,o),
(43,60,cs),
(25,60,o),
(12,47,o),
(12,31,cs),
(12,13,o),
(25,0,o),
(43,0,cs)
);
},
{
closed = 1;
nodes = (
(139,0,o),
(152,13,o),
(152,31,cs),
(152,47,o),
(139,60,o),
(123,60,cs),
(105,60,o),
(92,47,o),
(92,31,cs),
(92,13,o),
(105,0,o),
(123,0,cs)
);
},
{
closed = 1;
nodes = (
(43,0,l),
(123,0,l),
(123,60,l),
(43,60,l)
);
}
);
width = 670;
}
);
},
{
export = 0;
glyphname = bar.4;
lastChange = "2025-02-27 05:06:31 +0000";
layers = (
{
background = {
shapes = (
{
closed = 1;
nodes = (
(150,-2,ls),
(180,-2,o),
(198,10,o),
(198,30,cs),
(198,50,o),
(180,62,o),
(150,62,cs),
(60,62,ls),
(30,62,o),
(12,50,o),
(12,30,cs),
(12,10,o),
(30,-2,o),
(60,-2,cs)
);
}
);
};
layerId = "6E00C01D-8562-4DD7-AEA9-E2E0AAE53370";
shapes = (
{
closed = 1;
nodes = (
(59,0,o),
(72,13,o),
(72,31,cs),
(72,47,o),
(59,60,o),
(43,60,cs),
(25,60,o),
(12,47,o),
(12,31,cs),
(12,13,o),
(25,0,o),
(43,0,cs)
);
},
{
closed = 1;
nodes = (
(179,0,o),
(192,13,o),
(192,31,cs),
(192,47,o),
(179,60,o),
(163,60,cs),
(145,60,o),
(132,47,o),
(132,31,cs),
(132,13,o),
(145,0,o),
(163,0,cs)
);
},
{
closed = 1;
nodes = (
(43,0,l),
(163,0,l),
(163,60,l),
(43,60,l)
);
}
);
width = 670;
}
);
},
{
export = 0;
glyphname = bar.5;
lastChange = "2025-02-27 05:06:31 +0000";
layers = (
{
background = {
shapes = (
{
closed = 1;
nodes = (
(204,-2,ls),
(234,-2,o),
(252,10,o),
(252,30,cs),
(252,50,o),
(234,62,o),
(204,62,cs),
(60,62,ls),
(30,62,o),
(12,50,o),
(12,30,cs),
(12,10,o),
(30,-2,o),
(60,-2,cs)
);
}
);
};
layerId = "6E00C01D-8562-4DD7-AEA9-E2E0AAE53370";
shapes = (
{
closed = 1;
nodes = (
(59,0,o),
(72,13,o),
(72,31,cs),
(72,47,o),
(59,60,o),
(43,60,cs),
(25,60,o),
(12,47,o),
(12,31,cs),
(12,13,o),
(25,0,o),
(43,0,cs)
);
},
{
closed = 1;
nodes = (
(209,0,o),
(222,13,o),
(222,31,cs),
(222,47,o),
(209,60,o),
(193,60,cs),
(175,60,o),
(162,47,o),
(162,31,cs),
(162,13,o),
(175,0,o),
(193,0,cs)
);
},
{
closed = 1;
nodes = (
(43,0,l),
(193,0,l),
(193,60,l),
(43,60,l)
);
}
);
width = 670;
}
);
},
{
export = 0;
glyphname = bar.6;
lastChange = "2025-02-27 05:06:31 +0000";
layers = (
{
background = {
shapes = (
{
closed = 1;
nodes = (
(320,60,l),
(22,60,l),
(22,30,l),
(320,30,l)
);
},
{
closed = 1;
nodes = (
(320,60,l),
(22,60,l),
(22,30,l),
(320,30,l)
);
},
{
closed = 1;
nodes = (
(350,30,l),
(52,30,l),
(52,0,l),
(350,0,l)
);
},
{
closed = 1;
nodes = (
(350,30,l),
(52,30,l),
(52,0,l),
(350,0,l)
);
}
);
};
layerId = "6E00C01D-8562-4DD7-AEA9-E2E0AAE53370";
shapes = (
{
closed = 1;
nodes = (
(59,0,o),
(72,13,o),
(72,31,cs),
(72,47,o),
(59,60,o),
(43,60,cs),
(25,60,o),
(12,47,o),
(12,31,cs),
(12,13,o),
(25,0,o),
(43,0,cs)
);
},
{
closed = 1;
nodes = (
(289,0,o),
(302,13,o),
(302,31,cs),
(302,47,o),
(289,60,o),
(273,60,cs),
(255,60,o),
(242,47,o),
(242,31,cs),
(242,13,o),
(255,0,o),
(273,0,cs)
);
},
{
closed = 1;
nodes = (
(43,0,l),
(273,0,l),
(273,60,l),
(43,60,l)
);
}
);
width = 670;
}
);
},
{
export = 0;
glyphname = bar.7;
lastChange = "2025-02-27 05:06:31 +0000";
layers = (
{
background = {
shapes = (
{
closed = 1;
nodes = (
(312,-2,ls),
(342,-2,o),
(360,10,o),
(360,30,cs),
(360,50,o),
(342,62,o),
(312,62,cs),
(60,62,ls),
(30,62,o),
(12,50,o),
(12,30,cs),
(12,10,o),
(30,-2,o),
(60,-2,cs)
);
}
);
};
layerId = "6E00C01D-8562-4DD7-AEA9-E2E0AAE53370";
shapes = (
{
closed = 1;
nodes = (
(59,0,o),
(72,13,o),
(72,31,cs),
(72,47,o),
(59,60,o),
(43,60,cs),
(25,60,o),
(12,47,o),
(12,31,cs),
(12,13,o),
(25,0,o),
(43,0,cs)
);
},
{
closed = 1;
nodes = (
(319,0,o),
(332,13,o),
(332,31,cs),
(332,47,o),
(319,60,o),
(303,60,cs),
(285,60,o),
(272,47,o),
(272,31,cs),
(272,13,o),
(285,0,o),
(303,0,cs)
);
},
{
closed = 1;
nodes = (
(43,0,l),
(303,0,l),
(303,60,l),
(43,60,l)
);
}
);
width = 670;
}
);
},
{
export = 0;
glyphname = bar.8;
lastChange = "2025-02-27 05:06:31 +0000";
layers = (
{
background = {
shapes = (
{
closed = 1;
nodes = (
(416,60,l),
(22,60,l),
(22,30,l),
(416,30,l)
);
},
{
closed = 1;
nodes = (
(446,30,l),
(52,30,l),
(52,0,l),
(446,0,l)
);
}
);
};
layerId = "6E00C01D-8562-4DD7-AEA9-E2E0AAE53370";
shapes = (
{
closed = 1;
nodes = (
(59,0,o),
(72,13,o),
(72,31,cs),
(72,47,o),
(59,60,o),
(43,60,cs),
(25,60,o),
(12,47,o),
(12,31,cs),
(12,13,o),
(25,0,o),
(43,0,cs)
);
},
{
closed = 1;
nodes = (
(439,0,o),
(452,13,o),
(452,31,cs),
(452,47,o),
(439,60,o),
(423,60,cs),
(405,60,o),
(392,47,o),
(392,31,cs),
(392,13,o),
(405,0,o),
(423,0,cs)
);
},
{
closed = 1;
nodes = (
(43,0,l),
(423,0,l),
(423,60,l),
(43,60,l)
);
}
);
width = 670;
}
);
},
